%TF.GenerationSoftware,Flux,Pcbnew,9.0.1-9.0.1-0~ubuntu22.04.1*%
%TF.CreationDate,2025-07-26T15:57:35+00:00*%
%TF.ProjectId,input,696e7075-742e-46b6-9963-61645f706362,rev?*%
%TF.SameCoordinates,Original*%
%TF.FileFunction,Copper,L2,Bot*%
%TF.FilePolarity,Positive*%
%FSLAX46Y46*%
G04 Gerber Fmt 4.6, Leading zero omitted, Abs format (unit mm)*
G04 Filename: myoesp32*
G04 Build it with Flux! Visit our site at: https://www.flux.ai (PCBNEW 9.0.1-9.0.1-0~ubuntu22.04.1) date 2025-07-26 15:57:35*
%MOMM*%
%LPD*%
G01*
G04 APERTURE LIST*
G04 Aperture macros list*
%AMFreePoly0*
4,1,9,0.000462,0.000191,0.000462,-0.000191,0.000191,-0.000462,-0.000191,-0.000462,-0.000462,-0.000191,-0.000462,0.000191,-0.000191,0.000462,0.000191,0.000462,0.000462,0.000191,0.000462,0.000191,$1*%
G04 Aperture macros list end*
%TA.AperFunction,EtchedComponent*%
%ADD10C,0.000000*%
%TD*%
%TA.AperFunction,ComponentPad*%
%ADD11FreePoly0,180.000000*%
%TD*%
%TA.AperFunction,ComponentPad*%
%ADD12FreePoly0,270.000000*%
%TD*%
%TA.AperFunction,ComponentPad*%
%ADD13FreePoly0,0.000000*%
%TD*%
%TA.AperFunction,ComponentPad*%
%ADD14FreePoly0,90.000000*%
%TD*%
%TA.AperFunction,Conductor*%
%ADD15C,1.016000*%
%TD*%
G04 APERTURE END LIST*
D10*
%TA.AperFunction,EtchedComponent*%
%TO.C,*%
G36*
X9785914Y-11304975D02*
G01*
X9872539Y-11322205D01*
X9957058Y-11347842D01*
X10038657Y-11381641D01*
X10116550Y-11423275D01*
X10189987Y-11472344D01*
X10258261Y-11528374D01*
X10320715Y-11590826D01*
X10376746Y-11659100D01*
X10425815Y-11732536D01*
X10467451Y-11810429D01*
X10501251Y-11892027D01*
X10526890Y-11976546D01*
X10544121Y-12063170D01*
X10552779Y-12151067D01*
X10552779Y-12239389D01*
X10544123Y-12327285D01*
X10526893Y-12413910D01*
X10501255Y-12498429D01*
X10467456Y-12580028D01*
X10425822Y-12657921D01*
X10376754Y-12731358D01*
X10320724Y-12799633D01*
X10258271Y-12862086D01*
X10189998Y-12918117D01*
X10116561Y-12967187D01*
X10038669Y-13008822D01*
X9957070Y-13042622D01*
X9872552Y-13068261D01*
X9785927Y-13085492D01*
X9698031Y-13094150D01*
X9609709Y-13094151D01*
X8409709Y-13094159D01*
X8321812Y-13085503D01*
X8235187Y-13068273D01*
X8150668Y-13042635D01*
X8069069Y-13008836D01*
X7991176Y-12967202D01*
X7917739Y-12918134D01*
X7849465Y-12862104D01*
X7787012Y-12799651D01*
X7730980Y-12731378D01*
X7681911Y-12657941D01*
X7640276Y-12580049D01*
X7606476Y-12498450D01*
X7580837Y-12413932D01*
X7563605Y-12327307D01*
X7554948Y-12239411D01*
X7554947Y-12151089D01*
X7563603Y-12063192D01*
X7580833Y-11976567D01*
X7606471Y-11892049D01*
X7640270Y-11810450D01*
X7681904Y-11732556D01*
X7730972Y-11659119D01*
X7787003Y-11590845D01*
X7849455Y-11528392D01*
X7917728Y-11472360D01*
X7991165Y-11423291D01*
X8069058Y-11381656D01*
X8150656Y-11347856D01*
X8235175Y-11322217D01*
X8321799Y-11304985D01*
X8409696Y-11296328D01*
X9698017Y-11296318D01*
X9785914Y-11304975D01*
G37*
%TD.AperFunction*%
%TA.AperFunction,EtchedComponent*%
G36*
X9785914Y-11304975D02*
G01*
X9872539Y-11322205D01*
X9957058Y-11347842D01*
X10038657Y-11381641D01*
X10116550Y-11423275D01*
X10189987Y-11472344D01*
X10258261Y-11528374D01*
X10320715Y-11590826D01*
X10376746Y-11659100D01*
X10425815Y-11732536D01*
X10467451Y-11810429D01*
X10501251Y-11892027D01*
X10526890Y-11976546D01*
X10544121Y-12063170D01*
X10552779Y-12151067D01*
X10552779Y-12239389D01*
X10544123Y-12327285D01*
X10526893Y-12413910D01*
X10501255Y-12498429D01*
X10467456Y-12580028D01*
X10425822Y-12657921D01*
X10376754Y-12731358D01*
X10320724Y-12799633D01*
X10258271Y-12862086D01*
X10189998Y-12918117D01*
X10116561Y-12967187D01*
X10038669Y-13008822D01*
X9957070Y-13042622D01*
X9872552Y-13068261D01*
X9785927Y-13085492D01*
X9698031Y-13094150D01*
X9609709Y-13094151D01*
X8409709Y-13094159D01*
X8321812Y-13085503D01*
X8235187Y-13068273D01*
X8150668Y-13042635D01*
X8069069Y-13008836D01*
X7991176Y-12967202D01*
X7917739Y-12918134D01*
X7849465Y-12862104D01*
X7787012Y-12799651D01*
X7730980Y-12731378D01*
X7681911Y-12657941D01*
X7640276Y-12580049D01*
X7606476Y-12498450D01*
X7580837Y-12413932D01*
X7563605Y-12327307D01*
X7554948Y-12239411D01*
X7554947Y-12151089D01*
X7563603Y-12063192D01*
X7580833Y-11976567D01*
X7606471Y-11892049D01*
X7640270Y-11810450D01*
X7681904Y-11732556D01*
X7730972Y-11659119D01*
X7787003Y-11590845D01*
X7849455Y-11528392D01*
X7917728Y-11472360D01*
X7991165Y-11423291D01*
X8069058Y-11381656D01*
X8150656Y-11347856D01*
X8235175Y-11322217D01*
X8321799Y-11304985D01*
X8409696Y-11296328D01*
X9698017Y-11296318D01*
X9785914Y-11304975D01*
G37*
%TD.AperFunction*%
%TA.AperFunction,EtchedComponent*%
G36*
X-5454105Y-8765086D02*
G01*
X-5367480Y-8782317D01*
X-5282961Y-8807954D01*
X-5201362Y-8841753D01*
X-5123469Y-8883387D01*
X-5050032Y-8932456D01*
X-4981757Y-8988486D01*
X-4919304Y-9050938D01*
X-4863273Y-9119212D01*
X-4814203Y-9192648D01*
X-4772568Y-9270541D01*
X-4738768Y-9352139D01*
X-4713129Y-9436658D01*
X-4695898Y-9523282D01*
X-4687240Y-9611179D01*
X-4687239Y-9699501D01*
X-4695896Y-9787397D01*
X-4713126Y-9874022D01*
X-4738764Y-9958541D01*
X-4772562Y-10040140D01*
X-4814196Y-10118033D01*
X-4863265Y-10191470D01*
X-4919295Y-10259744D01*
X-4981748Y-10322198D01*
X-5050021Y-10378229D01*
X-5123457Y-10427299D01*
X-5201350Y-10468934D01*
X-5282948Y-10502734D01*
X-5367467Y-10528373D01*
X-5454092Y-10545604D01*
X-5541988Y-10554262D01*
X-5630310Y-10554263D01*
X-6830310Y-10554271D01*
X-6918206Y-10545615D01*
X-7004831Y-10528385D01*
X-7089350Y-10502747D01*
X-7170949Y-10468948D01*
X-7248842Y-10427314D01*
X-7322280Y-10378246D01*
X-7390554Y-10322216D01*
X-7453007Y-10259763D01*
X-7509038Y-10191490D01*
X-7558108Y-10118053D01*
X-7599743Y-10040161D01*
X-7633543Y-9958562D01*
X-7659182Y-9874044D01*
X-7676413Y-9787419D01*
X-7685071Y-9699523D01*
X-7685072Y-9611201D01*
X-7676415Y-9523304D01*
X-7659185Y-9436679D01*
X-7633547Y-9352160D01*
X-7599749Y-9270562D01*
X-7558115Y-9192668D01*
X-7509046Y-9119231D01*
X-7453016Y-9050957D01*
X-7390564Y-8988504D01*
X-7322290Y-8932472D01*
X-7248854Y-8883403D01*
X-7170961Y-8841768D01*
X-7089363Y-8807968D01*
X-7004844Y-8782329D01*
X-6918220Y-8765097D01*
X-6830323Y-8756440D01*
X-5542001Y-8756430D01*
X-5454105Y-8765086D01*
G37*
%TD.AperFunction*%
%TA.AperFunction,EtchedComponent*%
G36*
X-5454105Y-8765086D02*
G01*
X-5367480Y-8782317D01*
X-5282961Y-8807954D01*
X-5201362Y-8841753D01*
X-5123469Y-8883387D01*
X-5050032Y-8932456D01*
X-4981757Y-8988486D01*
X-4919304Y-9050938D01*
X-4863273Y-9119212D01*
X-4814203Y-9192648D01*
X-4772568Y-9270541D01*
X-4738768Y-9352139D01*
X-4713129Y-9436658D01*
X-4695898Y-9523282D01*
X-4687240Y-9611179D01*
X-4687239Y-9699501D01*
X-4695896Y-9787397D01*
X-4713126Y-9874022D01*
X-4738764Y-9958541D01*
X-4772562Y-10040140D01*
X-4814196Y-10118033D01*
X-4863265Y-10191470D01*
X-4919295Y-10259744D01*
X-4981748Y-10322198D01*
X-5050021Y-10378229D01*
X-5123457Y-10427299D01*
X-5201350Y-10468934D01*
X-5282948Y-10502734D01*
X-5367467Y-10528373D01*
X-5454092Y-10545604D01*
X-5541988Y-10554262D01*
X-5630310Y-10554263D01*
X-6830310Y-10554271D01*
X-6918206Y-10545615D01*
X-7004831Y-10528385D01*
X-7089350Y-10502747D01*
X-7170949Y-10468948D01*
X-7248842Y-10427314D01*
X-7322280Y-10378246D01*
X-7390554Y-10322216D01*
X-7453007Y-10259763D01*
X-7509038Y-10191490D01*
X-7558108Y-10118053D01*
X-7599743Y-10040161D01*
X-7633543Y-9958562D01*
X-7659182Y-9874044D01*
X-7676413Y-9787419D01*
X-7685071Y-9699523D01*
X-7685072Y-9611201D01*
X-7676415Y-9523304D01*
X-7659185Y-9436679D01*
X-7633547Y-9352160D01*
X-7599749Y-9270562D01*
X-7558115Y-9192668D01*
X-7509046Y-9119231D01*
X-7453016Y-9050957D01*
X-7390564Y-8988504D01*
X-7322290Y-8932472D01*
X-7248854Y-8883403D01*
X-7170961Y-8841768D01*
X-7089363Y-8807968D01*
X-7004844Y-8782329D01*
X-6918220Y-8765097D01*
X-6830323Y-8756440D01*
X-5542001Y-8756430D01*
X-5454105Y-8765086D01*
G37*
%TD.AperFunction*%
%TA.AperFunction,EtchedComponent*%
G36*
X-5454142Y-3685086D02*
G01*
X-5367517Y-3702317D01*
X-5282998Y-3727954D01*
X-5201399Y-3761753D01*
X-5123506Y-3803387D01*
X-5050069Y-3852456D01*
X-4981795Y-3908486D01*
X-4919341Y-3970938D01*
X-4863310Y-4039212D01*
X-4814241Y-4112648D01*
X-4772605Y-4190541D01*
X-4738805Y-4272139D01*
X-4713166Y-4356658D01*
X-4695935Y-4443282D01*
X-4687277Y-4531179D01*
X-4687277Y-4619501D01*
X-4695933Y-4707397D01*
X-4713163Y-4794022D01*
X-4738801Y-4878541D01*
X-4772600Y-4960140D01*
X-4814234Y-5038033D01*
X-4863302Y-5111470D01*
X-4919332Y-5179744D01*
X-4981785Y-5242198D01*
X-5050058Y-5298229D01*
X-5123495Y-5347299D01*
X-5201387Y-5388934D01*
X-5282986Y-5422734D01*
X-5367504Y-5448373D01*
X-5454129Y-5465604D01*
X-5542025Y-5474262D01*
X-5630347Y-5474263D01*
X-6830347Y-5474271D01*
X-6918244Y-5465615D01*
X-7004869Y-5448385D01*
X-7089388Y-5422747D01*
X-7170986Y-5388948D01*
X-7248880Y-5347314D01*
X-7322317Y-5298246D01*
X-7390591Y-5242216D01*
X-7453044Y-5179763D01*
X-7509076Y-5111490D01*
X-7558145Y-5038053D01*
X-7599780Y-4960161D01*
X-7633580Y-4878562D01*
X-7659219Y-4794044D01*
X-7676451Y-4707419D01*
X-7685108Y-4619523D01*
X-7685109Y-4531201D01*
X-7676453Y-4443304D01*
X-7659223Y-4356679D01*
X-7633585Y-4272160D01*
X-7599786Y-4190562D01*
X-7558152Y-4112668D01*
X-7509084Y-4039231D01*
X-7453053Y-3970957D01*
X-7390601Y-3908504D01*
X-7322328Y-3852472D01*
X-7248891Y-3803403D01*
X-7170998Y-3761768D01*
X-7089400Y-3727968D01*
X-7004881Y-3702329D01*
X-6918257Y-3685097D01*
X-6830360Y-3676440D01*
X-5542039Y-3676430D01*
X-5454142Y-3685086D01*
G37*
%TD.AperFunction*%
%TA.AperFunction,EtchedComponent*%
G36*
X-5454142Y-3685086D02*
G01*
X-5367517Y-3702317D01*
X-5282998Y-3727954D01*
X-5201399Y-3761753D01*
X-5123506Y-3803387D01*
X-5050069Y-3852456D01*
X-4981795Y-3908486D01*
X-4919341Y-3970938D01*
X-4863310Y-4039212D01*
X-4814241Y-4112648D01*
X-4772605Y-4190541D01*
X-4738805Y-4272139D01*
X-4713166Y-4356658D01*
X-4695935Y-4443282D01*
X-4687277Y-4531179D01*
X-4687277Y-4619501D01*
X-4695933Y-4707397D01*
X-4713163Y-4794022D01*
X-4738801Y-4878541D01*
X-4772600Y-4960140D01*
X-4814234Y-5038033D01*
X-4863302Y-5111470D01*
X-4919332Y-5179744D01*
X-4981785Y-5242198D01*
X-5050058Y-5298229D01*
X-5123495Y-5347299D01*
X-5201387Y-5388934D01*
X-5282986Y-5422734D01*
X-5367504Y-5448373D01*
X-5454129Y-5465604D01*
X-5542025Y-5474262D01*
X-5630347Y-5474263D01*
X-6830347Y-5474271D01*
X-6918244Y-5465615D01*
X-7004869Y-5448385D01*
X-7089388Y-5422747D01*
X-7170986Y-5388948D01*
X-7248880Y-5347314D01*
X-7322317Y-5298246D01*
X-7390591Y-5242216D01*
X-7453044Y-5179763D01*
X-7509076Y-5111490D01*
X-7558145Y-5038053D01*
X-7599780Y-4960161D01*
X-7633580Y-4878562D01*
X-7659219Y-4794044D01*
X-7676451Y-4707419D01*
X-7685108Y-4619523D01*
X-7685109Y-4531201D01*
X-7676453Y-4443304D01*
X-7659223Y-4356679D01*
X-7633585Y-4272160D01*
X-7599786Y-4190562D01*
X-7558152Y-4112668D01*
X-7509084Y-4039231D01*
X-7453053Y-3970957D01*
X-7390601Y-3908504D01*
X-7322328Y-3852472D01*
X-7248891Y-3803403D01*
X-7170998Y-3761768D01*
X-7089400Y-3727968D01*
X-7004881Y-3702329D01*
X-6918257Y-3685097D01*
X-6830360Y-3676440D01*
X-5542039Y-3676430D01*
X-5454142Y-3685086D01*
G37*
%TD.AperFunction*%
%TA.AperFunction,EtchedComponent*%
G36*
X-5454067Y-13845086D02*
G01*
X-5367443Y-13862317D01*
X-5282924Y-13887954D01*
X-5201325Y-13921753D01*
X-5123431Y-13963387D01*
X-5049994Y-14012456D01*
X-4981720Y-14068486D01*
X-4919267Y-14130938D01*
X-4863235Y-14199212D01*
X-4814166Y-14272648D01*
X-4772531Y-14350541D01*
X-4738731Y-14432139D01*
X-4713092Y-14516658D01*
X-4695860Y-14603282D01*
X-4687203Y-14691179D01*
X-4687202Y-14779501D01*
X-4695858Y-14867397D01*
X-4713089Y-14954022D01*
X-4738726Y-15038541D01*
X-4772525Y-15120140D01*
X-4814159Y-15198033D01*
X-4863228Y-15271470D01*
X-4919258Y-15339744D01*
X-4981710Y-15402198D01*
X-5049984Y-15458229D01*
X-5123420Y-15507299D01*
X-5201313Y-15548934D01*
X-5282911Y-15582734D01*
X-5367430Y-15608373D01*
X-5454054Y-15625604D01*
X-5541951Y-15634262D01*
X-5630273Y-15634263D01*
X-6830273Y-15634271D01*
X-6918169Y-15625615D01*
X-7004794Y-15608385D01*
X-7089313Y-15582747D01*
X-7170912Y-15548948D01*
X-7248805Y-15507314D01*
X-7322242Y-15458246D01*
X-7390516Y-15402216D01*
X-7452970Y-15339763D01*
X-7509001Y-15271490D01*
X-7558071Y-15198053D01*
X-7599706Y-15120161D01*
X-7633506Y-15038562D01*
X-7659145Y-14954044D01*
X-7676376Y-14867419D01*
X-7685034Y-14779523D01*
X-7685034Y-14691201D01*
X-7676378Y-14603304D01*
X-7659148Y-14516679D01*
X-7633510Y-14432160D01*
X-7599711Y-14350562D01*
X-7558077Y-14272668D01*
X-7509009Y-14199231D01*
X-7452979Y-14130957D01*
X-7390526Y-14068504D01*
X-7322253Y-14012472D01*
X-7248816Y-13963403D01*
X-7170924Y-13921768D01*
X-7089325Y-13887968D01*
X-7004807Y-13862329D01*
X-6918182Y-13845097D01*
X-6830286Y-13836440D01*
X-5541964Y-13836430D01*
X-5454067Y-13845086D01*
G37*
%TD.AperFunction*%
%TA.AperFunction,EtchedComponent*%
G36*
X-5454067Y-13845086D02*
G01*
X-5367443Y-13862317D01*
X-5282924Y-13887954D01*
X-5201325Y-13921753D01*
X-5123431Y-13963387D01*
X-5049994Y-14012456D01*
X-4981720Y-14068486D01*
X-4919267Y-14130938D01*
X-4863235Y-14199212D01*
X-4814166Y-14272648D01*
X-4772531Y-14350541D01*
X-4738731Y-14432139D01*
X-4713092Y-14516658D01*
X-4695860Y-14603282D01*
X-4687203Y-14691179D01*
X-4687202Y-14779501D01*
X-4695858Y-14867397D01*
X-4713089Y-14954022D01*
X-4738726Y-15038541D01*
X-4772525Y-15120140D01*
X-4814159Y-15198033D01*
X-4863228Y-15271470D01*
X-4919258Y-15339744D01*
X-4981710Y-15402198D01*
X-5049984Y-15458229D01*
X-5123420Y-15507299D01*
X-5201313Y-15548934D01*
X-5282911Y-15582734D01*
X-5367430Y-15608373D01*
X-5454054Y-15625604D01*
X-5541951Y-15634262D01*
X-5630273Y-15634263D01*
X-6830273Y-15634271D01*
X-6918169Y-15625615D01*
X-7004794Y-15608385D01*
X-7089313Y-15582747D01*
X-7170912Y-15548948D01*
X-7248805Y-15507314D01*
X-7322242Y-15458246D01*
X-7390516Y-15402216D01*
X-7452970Y-15339763D01*
X-7509001Y-15271490D01*
X-7558071Y-15198053D01*
X-7599706Y-15120161D01*
X-7633506Y-15038562D01*
X-7659145Y-14954044D01*
X-7676376Y-14867419D01*
X-7685034Y-14779523D01*
X-7685034Y-14691201D01*
X-7676378Y-14603304D01*
X-7659148Y-14516679D01*
X-7633510Y-14432160D01*
X-7599711Y-14350562D01*
X-7558077Y-14272668D01*
X-7509009Y-14199231D01*
X-7452979Y-14130957D01*
X-7390526Y-14068504D01*
X-7322253Y-14012472D01*
X-7248816Y-13963403D01*
X-7170924Y-13921768D01*
X-7089325Y-13887968D01*
X-7004807Y-13862329D01*
X-6918182Y-13845097D01*
X-6830286Y-13836440D01*
X-5541964Y-13836430D01*
X-5454067Y-13845086D01*
G37*
%TD.AperFunction*%
%TA.AperFunction,EtchedComponent*%
G36*
X-5454161Y-1145086D02*
G01*
X-5367536Y-1162317D01*
X-5283017Y-1187954D01*
X-5201418Y-1221753D01*
X-5123525Y-1263387D01*
X-5050087Y-1312456D01*
X-4981813Y-1368486D01*
X-4919360Y-1430938D01*
X-4863329Y-1499212D01*
X-4814259Y-1572648D01*
X-4772624Y-1650541D01*
X-4738824Y-1732139D01*
X-4713185Y-1816658D01*
X-4695954Y-1903282D01*
X-4687296Y-1991179D01*
X-4687295Y-2079501D01*
X-4695952Y-2167397D01*
X-4713182Y-2254022D01*
X-4738820Y-2338541D01*
X-4772618Y-2420140D01*
X-4814252Y-2498033D01*
X-4863321Y-2571470D01*
X-4919351Y-2639744D01*
X-4981804Y-2702198D01*
X-5050077Y-2758229D01*
X-5123513Y-2807299D01*
X-5201406Y-2848934D01*
X-5283004Y-2882734D01*
X-5367523Y-2908373D01*
X-5454148Y-2925604D01*
X-5542044Y-2934262D01*
X-5630366Y-2934263D01*
X-6830366Y-2934271D01*
X-6918262Y-2925615D01*
X-7004887Y-2908385D01*
X-7089406Y-2882747D01*
X-7171005Y-2848948D01*
X-7248898Y-2807314D01*
X-7322336Y-2758246D01*
X-7390610Y-2702216D01*
X-7453063Y-2639763D01*
X-7509094Y-2571490D01*
X-7558164Y-2498053D01*
X-7599799Y-2420161D01*
X-7633599Y-2338562D01*
X-7659238Y-2254044D01*
X-7676469Y-2167419D01*
X-7685127Y-2079523D01*
X-7685128Y-1991201D01*
X-7676471Y-1903304D01*
X-7659241Y-1816679D01*
X-7633603Y-1732160D01*
X-7599805Y-1650562D01*
X-7558171Y-1572668D01*
X-7509102Y-1499231D01*
X-7453072Y-1430957D01*
X-7390620Y-1368504D01*
X-7322346Y-1312472D01*
X-7248910Y-1263403D01*
X-7171017Y-1221768D01*
X-7089419Y-1187968D01*
X-7004900Y-1162329D01*
X-6918276Y-1145097D01*
X-6830379Y-1136440D01*
X-5542057Y-1136430D01*
X-5454161Y-1145086D01*
G37*
%TD.AperFunction*%
%TA.AperFunction,EtchedComponent*%
G36*
X-5454161Y-1145086D02*
G01*
X-5367536Y-1162317D01*
X-5283017Y-1187954D01*
X-5201418Y-1221753D01*
X-5123525Y-1263387D01*
X-5050087Y-1312456D01*
X-4981813Y-1368486D01*
X-4919360Y-1430938D01*
X-4863329Y-1499212D01*
X-4814259Y-1572648D01*
X-4772624Y-1650541D01*
X-4738824Y-1732139D01*
X-4713185Y-1816658D01*
X-4695954Y-1903282D01*
X-4687296Y-1991179D01*
X-4687295Y-2079501D01*
X-4695952Y-2167397D01*
X-4713182Y-2254022D01*
X-4738820Y-2338541D01*
X-4772618Y-2420140D01*
X-4814252Y-2498033D01*
X-4863321Y-2571470D01*
X-4919351Y-2639744D01*
X-4981804Y-2702198D01*
X-5050077Y-2758229D01*
X-5123513Y-2807299D01*
X-5201406Y-2848934D01*
X-5283004Y-2882734D01*
X-5367523Y-2908373D01*
X-5454148Y-2925604D01*
X-5542044Y-2934262D01*
X-5630366Y-2934263D01*
X-6830366Y-2934271D01*
X-6918262Y-2925615D01*
X-7004887Y-2908385D01*
X-7089406Y-2882747D01*
X-7171005Y-2848948D01*
X-7248898Y-2807314D01*
X-7322336Y-2758246D01*
X-7390610Y-2702216D01*
X-7453063Y-2639763D01*
X-7509094Y-2571490D01*
X-7558164Y-2498053D01*
X-7599799Y-2420161D01*
X-7633599Y-2338562D01*
X-7659238Y-2254044D01*
X-7676469Y-2167419D01*
X-7685127Y-2079523D01*
X-7685128Y-1991201D01*
X-7676471Y-1903304D01*
X-7659241Y-1816679D01*
X-7633603Y-1732160D01*
X-7599805Y-1650562D01*
X-7558171Y-1572668D01*
X-7509102Y-1499231D01*
X-7453072Y-1430957D01*
X-7390620Y-1368504D01*
X-7322346Y-1312472D01*
X-7248910Y-1263403D01*
X-7171017Y-1221768D01*
X-7089419Y-1187968D01*
X-7004900Y-1162329D01*
X-6918276Y-1145097D01*
X-6830379Y-1136440D01*
X-5542057Y-1136430D01*
X-5454161Y-1145086D01*
G37*
%TD.AperFunction*%
%TA.AperFunction,EtchedComponent*%
G36*
X-5454123Y-6225086D02*
G01*
X-5367498Y-6242317D01*
X-5282980Y-6267954D01*
X-5201381Y-6301753D01*
X-5123487Y-6343387D01*
X-5050050Y-6392456D01*
X-4981776Y-6448486D01*
X-4919323Y-6510938D01*
X-4863291Y-6579212D01*
X-4814222Y-6652648D01*
X-4772587Y-6730541D01*
X-4738787Y-6812139D01*
X-4713148Y-6896658D01*
X-4695916Y-6983282D01*
X-4687259Y-7071179D01*
X-4687258Y-7159501D01*
X-4695914Y-7247397D01*
X-4713144Y-7334022D01*
X-4738782Y-7418541D01*
X-4772581Y-7500140D01*
X-4814215Y-7578033D01*
X-4863284Y-7651470D01*
X-4919314Y-7719744D01*
X-4981766Y-7782198D01*
X-5050040Y-7838229D01*
X-5123476Y-7887299D01*
X-5201369Y-7928934D01*
X-5282967Y-7962734D01*
X-5367486Y-7988373D01*
X-5454110Y-8005604D01*
X-5542007Y-8014262D01*
X-5630329Y-8014263D01*
X-6830329Y-8014271D01*
X-6918225Y-8005615D01*
X-7004850Y-7988385D01*
X-7089369Y-7962747D01*
X-7170968Y-7928948D01*
X-7248861Y-7887314D01*
X-7322298Y-7838246D01*
X-7390572Y-7782216D01*
X-7453026Y-7719763D01*
X-7509057Y-7651490D01*
X-7558127Y-7578053D01*
X-7599762Y-7500161D01*
X-7633562Y-7418562D01*
X-7659201Y-7334044D01*
X-7676432Y-7247419D01*
X-7685090Y-7159523D01*
X-7685090Y-7071201D01*
X-7676434Y-6983304D01*
X-7659204Y-6896679D01*
X-7633566Y-6812160D01*
X-7599767Y-6730562D01*
X-7558133Y-6652668D01*
X-7509065Y-6579231D01*
X-7453035Y-6510957D01*
X-7390582Y-6448504D01*
X-7322309Y-6392472D01*
X-7248872Y-6343403D01*
X-7170980Y-6301768D01*
X-7089381Y-6267968D01*
X-7004863Y-6242329D01*
X-6918238Y-6225097D01*
X-6830342Y-6216440D01*
X-5542020Y-6216430D01*
X-5454123Y-6225086D01*
G37*
%TD.AperFunction*%
%TA.AperFunction,EtchedComponent*%
G36*
X-5454123Y-6225086D02*
G01*
X-5367498Y-6242317D01*
X-5282980Y-6267954D01*
X-5201381Y-6301753D01*
X-5123487Y-6343387D01*
X-5050050Y-6392456D01*
X-4981776Y-6448486D01*
X-4919323Y-6510938D01*
X-4863291Y-6579212D01*
X-4814222Y-6652648D01*
X-4772587Y-6730541D01*
X-4738787Y-6812139D01*
X-4713148Y-6896658D01*
X-4695916Y-6983282D01*
X-4687259Y-7071179D01*
X-4687258Y-7159501D01*
X-4695914Y-7247397D01*
X-4713144Y-7334022D01*
X-4738782Y-7418541D01*
X-4772581Y-7500140D01*
X-4814215Y-7578033D01*
X-4863284Y-7651470D01*
X-4919314Y-7719744D01*
X-4981766Y-7782198D01*
X-5050040Y-7838229D01*
X-5123476Y-7887299D01*
X-5201369Y-7928934D01*
X-5282967Y-7962734D01*
X-5367486Y-7988373D01*
X-5454110Y-8005604D01*
X-5542007Y-8014262D01*
X-5630329Y-8014263D01*
X-6830329Y-8014271D01*
X-6918225Y-8005615D01*
X-7004850Y-7988385D01*
X-7089369Y-7962747D01*
X-7170968Y-7928948D01*
X-7248861Y-7887314D01*
X-7322298Y-7838246D01*
X-7390572Y-7782216D01*
X-7453026Y-7719763D01*
X-7509057Y-7651490D01*
X-7558127Y-7578053D01*
X-7599762Y-7500161D01*
X-7633562Y-7418562D01*
X-7659201Y-7334044D01*
X-7676432Y-7247419D01*
X-7685090Y-7159523D01*
X-7685090Y-7071201D01*
X-7676434Y-6983304D01*
X-7659204Y-6896679D01*
X-7633566Y-6812160D01*
X-7599767Y-6730562D01*
X-7558133Y-6652668D01*
X-7509065Y-6579231D01*
X-7453035Y-6510957D01*
X-7390582Y-6448504D01*
X-7322309Y-6392472D01*
X-7248872Y-6343403D01*
X-7170980Y-6301768D01*
X-7089381Y-6267968D01*
X-7004863Y-6242329D01*
X-6918238Y-6225097D01*
X-6830342Y-6216440D01*
X-5542020Y-6216430D01*
X-5454123Y-6225086D01*
G37*
%TD.AperFunction*%
%TA.AperFunction,EtchedComponent*%
G36*
X9785821Y1395025D02*
G01*
X9872446Y1377795D01*
X9956964Y1352158D01*
X10038563Y1318359D01*
X10116457Y1276725D01*
X10189894Y1227656D01*
X10258168Y1171626D01*
X10320621Y1109174D01*
X10376653Y1040900D01*
X10425722Y967464D01*
X10467357Y889571D01*
X10501157Y807973D01*
X10526796Y723454D01*
X10544028Y636830D01*
X10552685Y548933D01*
X10552686Y460611D01*
X10544030Y372715D01*
X10526800Y286090D01*
X10501162Y201571D01*
X10467363Y119972D01*
X10425729Y42079D01*
X10376661Y-31358D01*
X10320630Y-99633D01*
X10258178Y-162086D01*
X10189904Y-218117D01*
X10116468Y-267187D01*
X10038575Y-308822D01*
X9956977Y-342622D01*
X9872458Y-368261D01*
X9785834Y-385492D01*
X9697937Y-394150D01*
X9609615Y-394151D01*
X8409615Y-394159D01*
X8321719Y-385503D01*
X8235094Y-368273D01*
X8150575Y-342635D01*
X8068976Y-308836D01*
X7991083Y-267202D01*
X7917646Y-218134D01*
X7849372Y-162104D01*
X7786918Y-99651D01*
X7730887Y-31378D01*
X7681817Y42059D01*
X7640182Y119951D01*
X7606382Y201550D01*
X7580743Y286068D01*
X7563512Y372693D01*
X7554854Y460589D01*
X7554854Y548911D01*
X7563510Y636808D01*
X7580740Y723433D01*
X7606378Y807951D01*
X7640177Y889550D01*
X7681811Y967444D01*
X7730879Y1040881D01*
X7786909Y1109155D01*
X7849362Y1171608D01*
X7917635Y1227640D01*
X7991072Y1276709D01*
X8068964Y1318344D01*
X8150563Y1352144D01*
X8235081Y1377783D01*
X8321706Y1395015D01*
X8409602Y1403672D01*
X9697924Y1403682D01*
X9785821Y1395025D01*
G37*
%TD.AperFunction*%
%TA.AperFunction,EtchedComponent*%
G36*
X9785821Y1395025D02*
G01*
X9872446Y1377795D01*
X9956964Y1352158D01*
X10038563Y1318359D01*
X10116457Y1276725D01*
X10189894Y1227656D01*
X10258168Y1171626D01*
X10320621Y1109174D01*
X10376653Y1040900D01*
X10425722Y967464D01*
X10467357Y889571D01*
X10501157Y807973D01*
X10526796Y723454D01*
X10544028Y636830D01*
X10552685Y548933D01*
X10552686Y460611D01*
X10544030Y372715D01*
X10526800Y286090D01*
X10501162Y201571D01*
X10467363Y119972D01*
X10425729Y42079D01*
X10376661Y-31358D01*
X10320630Y-99633D01*
X10258178Y-162086D01*
X10189904Y-218117D01*
X10116468Y-267187D01*
X10038575Y-308822D01*
X9956977Y-342622D01*
X9872458Y-368261D01*
X9785834Y-385492D01*
X9697937Y-394150D01*
X9609615Y-394151D01*
X8409615Y-394159D01*
X8321719Y-385503D01*
X8235094Y-368273D01*
X8150575Y-342635D01*
X8068976Y-308836D01*
X7991083Y-267202D01*
X7917646Y-218134D01*
X7849372Y-162104D01*
X7786918Y-99651D01*
X7730887Y-31378D01*
X7681817Y42059D01*
X7640182Y119951D01*
X7606382Y201550D01*
X7580743Y286068D01*
X7563512Y372693D01*
X7554854Y460589D01*
X7554854Y548911D01*
X7563510Y636808D01*
X7580740Y723433D01*
X7606378Y807951D01*
X7640177Y889550D01*
X7681811Y967444D01*
X7730879Y1040881D01*
X7786909Y1109155D01*
X7849362Y1171608D01*
X7917635Y1227640D01*
X7991072Y1276709D01*
X8068964Y1318344D01*
X8150563Y1352144D01*
X8235081Y1377783D01*
X8321706Y1395015D01*
X8409602Y1403672D01*
X9697924Y1403682D01*
X9785821Y1395025D01*
G37*
%TD.AperFunction*%
%TA.AperFunction,EtchedComponent*%
G36*
X-5454179Y1394914D02*
G01*
X-5367554Y1377683D01*
X-5283036Y1352046D01*
X-5201437Y1318247D01*
X-5123543Y1276613D01*
X-5050106Y1227544D01*
X-4981832Y1171514D01*
X-4919379Y1109062D01*
X-4863347Y1040788D01*
X-4814278Y967352D01*
X-4772643Y889459D01*
X-4738843Y807861D01*
X-4713204Y723342D01*
X-4695972Y636718D01*
X-4687315Y548821D01*
X-4687314Y460499D01*
X-4695970Y372603D01*
X-4713200Y285978D01*
X-4738838Y201459D01*
X-4772637Y119860D01*
X-4814271Y41967D01*
X-4863339Y-31470D01*
X-4919370Y-99744D01*
X-4981822Y-162198D01*
X-5050096Y-218229D01*
X-5123532Y-267299D01*
X-5201425Y-308934D01*
X-5283023Y-342734D01*
X-5367542Y-368373D01*
X-5454166Y-385604D01*
X-5542063Y-394262D01*
X-5630385Y-394263D01*
X-6830385Y-394271D01*
X-6918281Y-385615D01*
X-7004906Y-368385D01*
X-7089425Y-342747D01*
X-7171024Y-308948D01*
X-7248917Y-267314D01*
X-7322354Y-218246D01*
X-7390628Y-162216D01*
X-7453082Y-99763D01*
X-7509113Y-31490D01*
X-7558183Y41947D01*
X-7599818Y119839D01*
X-7633618Y201438D01*
X-7659257Y285956D01*
X-7676488Y372581D01*
X-7685146Y460477D01*
X-7685146Y548799D01*
X-7676490Y636696D01*
X-7659260Y723321D01*
X-7633622Y807840D01*
X-7599823Y889438D01*
X-7558189Y967332D01*
X-7509121Y1040769D01*
X-7453091Y1109043D01*
X-7390638Y1171496D01*
X-7322365Y1227528D01*
X-7248928Y1276597D01*
X-7171036Y1318232D01*
X-7089437Y1352032D01*
X-7004919Y1377671D01*
X-6918294Y1394903D01*
X-6830398Y1403560D01*
X-5542076Y1403570D01*
X-5454179Y1394914D01*
G37*
%TD.AperFunction*%
%TA.AperFunction,EtchedComponent*%
G36*
X-5454179Y1394914D02*
G01*
X-5367554Y1377683D01*
X-5283036Y1352046D01*
X-5201437Y1318247D01*
X-5123543Y1276613D01*
X-5050106Y1227544D01*
X-4981832Y1171514D01*
X-4919379Y1109062D01*
X-4863347Y1040788D01*
X-4814278Y967352D01*
X-4772643Y889459D01*
X-4738843Y807861D01*
X-4713204Y723342D01*
X-4695972Y636718D01*
X-4687315Y548821D01*
X-4687314Y460499D01*
X-4695970Y372603D01*
X-4713200Y285978D01*
X-4738838Y201459D01*
X-4772637Y119860D01*
X-4814271Y41967D01*
X-4863339Y-31470D01*
X-4919370Y-99744D01*
X-4981822Y-162198D01*
X-5050096Y-218229D01*
X-5123532Y-267299D01*
X-5201425Y-308934D01*
X-5283023Y-342734D01*
X-5367542Y-368373D01*
X-5454166Y-385604D01*
X-5542063Y-394262D01*
X-5630385Y-394263D01*
X-6830385Y-394271D01*
X-6918281Y-385615D01*
X-7004906Y-368385D01*
X-7089425Y-342747D01*
X-7171024Y-308948D01*
X-7248917Y-267314D01*
X-7322354Y-218246D01*
X-7390628Y-162216D01*
X-7453082Y-99763D01*
X-7509113Y-31490D01*
X-7558183Y41947D01*
X-7599818Y119839D01*
X-7633618Y201438D01*
X-7659257Y285956D01*
X-7676488Y372581D01*
X-7685146Y460477D01*
X-7685146Y548799D01*
X-7676490Y636696D01*
X-7659260Y723321D01*
X-7633622Y807840D01*
X-7599823Y889438D01*
X-7558189Y967332D01*
X-7509121Y1040769D01*
X-7453091Y1109043D01*
X-7390638Y1171496D01*
X-7322365Y1227528D01*
X-7248928Y1276597D01*
X-7171036Y1318232D01*
X-7089437Y1352032D01*
X-7004919Y1377671D01*
X-6918294Y1394903D01*
X-6830398Y1403560D01*
X-5542076Y1403570D01*
X-5454179Y1394914D01*
G37*
%TD.AperFunction*%
%TA.AperFunction,EtchedComponent*%
G36*
X9785858Y-3684975D02*
G01*
X9872483Y-3702205D01*
X9957002Y-3727842D01*
X10038601Y-3761641D01*
X10116494Y-3803275D01*
X10189931Y-3852344D01*
X10258205Y-3908374D01*
X10320659Y-3970826D01*
X10376690Y-4039100D01*
X10425759Y-4112536D01*
X10467395Y-4190429D01*
X10501195Y-4272027D01*
X10526834Y-4356546D01*
X10544065Y-4443170D01*
X10552723Y-4531067D01*
X10552723Y-4619389D01*
X10544067Y-4707285D01*
X10526837Y-4793910D01*
X10501199Y-4878429D01*
X10467400Y-4960028D01*
X10425766Y-5037921D01*
X10376698Y-5111358D01*
X10320668Y-5179633D01*
X10258215Y-5242086D01*
X10189942Y-5298117D01*
X10116505Y-5347187D01*
X10038613Y-5388822D01*
X9957014Y-5422622D01*
X9872496Y-5448261D01*
X9785871Y-5465492D01*
X9697975Y-5474150D01*
X9609653Y-5474151D01*
X8409653Y-5474159D01*
X8321756Y-5465503D01*
X8235131Y-5448273D01*
X8150612Y-5422635D01*
X8069014Y-5388836D01*
X7991120Y-5347202D01*
X7917683Y-5298134D01*
X7849409Y-5242104D01*
X7786956Y-5179651D01*
X7730924Y-5111378D01*
X7681855Y-5037941D01*
X7640220Y-4960049D01*
X7606420Y-4878450D01*
X7580781Y-4793932D01*
X7563549Y-4707307D01*
X7554892Y-4619411D01*
X7554891Y-4531089D01*
X7563547Y-4443192D01*
X7580777Y-4356567D01*
X7606415Y-4272049D01*
X7640214Y-4190450D01*
X7681848Y-4112556D01*
X7730916Y-4039119D01*
X7786947Y-3970845D01*
X7849399Y-3908392D01*
X7917672Y-3852360D01*
X7991109Y-3803291D01*
X8069002Y-3761656D01*
X8150600Y-3727856D01*
X8235119Y-3702217D01*
X8321743Y-3684985D01*
X8409640Y-3676328D01*
X9697961Y-3676318D01*
X9785858Y-3684975D01*
G37*
%TD.AperFunction*%
%TA.AperFunction,EtchedComponent*%
G36*
X9785858Y-3684975D02*
G01*
X9872483Y-3702205D01*
X9957002Y-3727842D01*
X10038601Y-3761641D01*
X10116494Y-3803275D01*
X10189931Y-3852344D01*
X10258205Y-3908374D01*
X10320659Y-3970826D01*
X10376690Y-4039100D01*
X10425759Y-4112536D01*
X10467395Y-4190429D01*
X10501195Y-4272027D01*
X10526834Y-4356546D01*
X10544065Y-4443170D01*
X10552723Y-4531067D01*
X10552723Y-4619389D01*
X10544067Y-4707285D01*
X10526837Y-4793910D01*
X10501199Y-4878429D01*
X10467400Y-4960028D01*
X10425766Y-5037921D01*
X10376698Y-5111358D01*
X10320668Y-5179633D01*
X10258215Y-5242086D01*
X10189942Y-5298117D01*
X10116505Y-5347187D01*
X10038613Y-5388822D01*
X9957014Y-5422622D01*
X9872496Y-5448261D01*
X9785871Y-5465492D01*
X9697975Y-5474150D01*
X9609653Y-5474151D01*
X8409653Y-5474159D01*
X8321756Y-5465503D01*
X8235131Y-5448273D01*
X8150612Y-5422635D01*
X8069014Y-5388836D01*
X7991120Y-5347202D01*
X7917683Y-5298134D01*
X7849409Y-5242104D01*
X7786956Y-5179651D01*
X7730924Y-5111378D01*
X7681855Y-5037941D01*
X7640220Y-4960049D01*
X7606420Y-4878450D01*
X7580781Y-4793932D01*
X7563549Y-4707307D01*
X7554892Y-4619411D01*
X7554891Y-4531089D01*
X7563547Y-4443192D01*
X7580777Y-4356567D01*
X7606415Y-4272049D01*
X7640214Y-4190450D01*
X7681848Y-4112556D01*
X7730916Y-4039119D01*
X7786947Y-3970845D01*
X7849399Y-3908392D01*
X7917672Y-3852360D01*
X7991109Y-3803291D01*
X8069002Y-3761656D01*
X8150600Y-3727856D01*
X8235119Y-3702217D01*
X8321743Y-3684985D01*
X8409640Y-3676328D01*
X9697961Y-3676318D01*
X9785858Y-3684975D01*
G37*
%TD.AperFunction*%
%TA.AperFunction,EtchedComponent*%
G36*
X9785839Y-1144975D02*
G01*
X9872464Y-1162205D01*
X9956983Y-1187842D01*
X10038582Y-1221641D01*
X10116475Y-1263275D01*
X10189913Y-1312344D01*
X10258187Y-1368374D01*
X10320640Y-1430826D01*
X10376671Y-1499100D01*
X10425741Y-1572536D01*
X10467376Y-1650429D01*
X10501176Y-1732027D01*
X10526815Y-1816546D01*
X10544046Y-1903170D01*
X10552704Y-1991067D01*
X10552705Y-2079389D01*
X10544048Y-2167285D01*
X10526818Y-2253910D01*
X10501180Y-2338429D01*
X10467382Y-2420028D01*
X10425748Y-2497921D01*
X10376679Y-2571358D01*
X10320649Y-2639633D01*
X10258196Y-2702086D01*
X10189923Y-2758117D01*
X10116487Y-2807187D01*
X10038594Y-2848822D01*
X9956996Y-2882622D01*
X9872477Y-2908261D01*
X9785852Y-2925492D01*
X9697956Y-2934150D01*
X9609634Y-2934151D01*
X8409634Y-2934159D01*
X8321738Y-2925503D01*
X8235113Y-2908273D01*
X8150594Y-2882635D01*
X8068995Y-2848836D01*
X7991102Y-2807202D01*
X7917664Y-2758134D01*
X7849390Y-2702104D01*
X7786937Y-2639651D01*
X7730906Y-2571378D01*
X7681836Y-2497941D01*
X7640201Y-2420049D01*
X7606401Y-2338450D01*
X7580762Y-2253932D01*
X7563531Y-2167307D01*
X7554873Y-2079411D01*
X7554872Y-1991089D01*
X7563529Y-1903192D01*
X7580759Y-1816567D01*
X7606397Y-1732049D01*
X7640195Y-1650450D01*
X7681829Y-1572556D01*
X7730898Y-1499119D01*
X7786928Y-1430845D01*
X7849380Y-1368392D01*
X7917654Y-1312360D01*
X7991090Y-1263291D01*
X8068983Y-1221656D01*
X8150581Y-1187856D01*
X8235100Y-1162217D01*
X8321724Y-1144985D01*
X8409621Y-1136328D01*
X9697943Y-1136318D01*
X9785839Y-1144975D01*
G37*
%TD.AperFunction*%
%TA.AperFunction,EtchedComponent*%
G36*
X9785839Y-1144975D02*
G01*
X9872464Y-1162205D01*
X9956983Y-1187842D01*
X10038582Y-1221641D01*
X10116475Y-1263275D01*
X10189913Y-1312344D01*
X10258187Y-1368374D01*
X10320640Y-1430826D01*
X10376671Y-1499100D01*
X10425741Y-1572536D01*
X10467376Y-1650429D01*
X10501176Y-1732027D01*
X10526815Y-1816546D01*
X10544046Y-1903170D01*
X10552704Y-1991067D01*
X10552705Y-2079389D01*
X10544048Y-2167285D01*
X10526818Y-2253910D01*
X10501180Y-2338429D01*
X10467382Y-2420028D01*
X10425748Y-2497921D01*
X10376679Y-2571358D01*
X10320649Y-2639633D01*
X10258196Y-2702086D01*
X10189923Y-2758117D01*
X10116487Y-2807187D01*
X10038594Y-2848822D01*
X9956996Y-2882622D01*
X9872477Y-2908261D01*
X9785852Y-2925492D01*
X9697956Y-2934150D01*
X9609634Y-2934151D01*
X8409634Y-2934159D01*
X8321738Y-2925503D01*
X8235113Y-2908273D01*
X8150594Y-2882635D01*
X8068995Y-2848836D01*
X7991102Y-2807202D01*
X7917664Y-2758134D01*
X7849390Y-2702104D01*
X7786937Y-2639651D01*
X7730906Y-2571378D01*
X7681836Y-2497941D01*
X7640201Y-2420049D01*
X7606401Y-2338450D01*
X7580762Y-2253932D01*
X7563531Y-2167307D01*
X7554873Y-2079411D01*
X7554872Y-1991089D01*
X7563529Y-1903192D01*
X7580759Y-1816567D01*
X7606397Y-1732049D01*
X7640195Y-1650450D01*
X7681829Y-1572556D01*
X7730898Y-1499119D01*
X7786928Y-1430845D01*
X7849380Y-1368392D01*
X7917654Y-1312360D01*
X7991090Y-1263291D01*
X8068983Y-1221656D01*
X8150581Y-1187856D01*
X8235100Y-1162217D01*
X8321724Y-1144985D01*
X8409621Y-1136328D01*
X9697943Y-1136318D01*
X9785839Y-1144975D01*
G37*
%TD.AperFunction*%
%TA.AperFunction,EtchedComponent*%
G36*
X10553888Y-15635228D02*
G01*
X7553888Y-15635250D01*
X7553875Y-13835250D01*
X10553875Y-13835228D01*
X10553888Y-15635228D01*
G37*
%TD.AperFunction*%
%TA.AperFunction,EtchedComponent*%
G36*
X10553888Y-15635228D02*
G01*
X7553888Y-15635250D01*
X7553875Y-13835250D01*
X10553875Y-13835228D01*
X10553888Y-15635228D01*
G37*
%TD.AperFunction*%
%TA.AperFunction,EtchedComponent*%
G36*
X9785895Y-8764975D02*
G01*
X9872520Y-8782205D01*
X9957039Y-8807842D01*
X10038638Y-8841641D01*
X10116531Y-8883275D01*
X10189968Y-8932344D01*
X10258243Y-8988374D01*
X10320696Y-9050826D01*
X10376727Y-9119100D01*
X10425797Y-9192536D01*
X10467432Y-9270429D01*
X10501232Y-9352027D01*
X10526871Y-9436546D01*
X10544102Y-9523170D01*
X10552760Y-9611067D01*
X10552761Y-9699389D01*
X10544104Y-9787285D01*
X10526874Y-9873910D01*
X10501236Y-9958429D01*
X10467438Y-10040028D01*
X10425804Y-10117921D01*
X10376735Y-10191358D01*
X10320705Y-10259633D01*
X10258252Y-10322086D01*
X10189979Y-10378117D01*
X10116543Y-10427187D01*
X10038650Y-10468822D01*
X9957052Y-10502622D01*
X9872533Y-10528261D01*
X9785908Y-10545492D01*
X9698012Y-10554150D01*
X9609690Y-10554151D01*
X8409690Y-10554159D01*
X8321794Y-10545503D01*
X8235169Y-10528273D01*
X8150650Y-10502635D01*
X8069051Y-10468836D01*
X7991158Y-10427202D01*
X7917720Y-10378134D01*
X7849446Y-10322104D01*
X7786993Y-10259651D01*
X7730962Y-10191378D01*
X7681892Y-10117941D01*
X7640257Y-10040049D01*
X7606457Y-9958450D01*
X7580818Y-9873932D01*
X7563587Y-9787307D01*
X7554929Y-9699411D01*
X7554928Y-9611089D01*
X7563585Y-9523192D01*
X7580815Y-9436567D01*
X7606453Y-9352049D01*
X7640251Y-9270450D01*
X7681885Y-9192556D01*
X7730954Y-9119119D01*
X7786984Y-9050845D01*
X7849436Y-8988392D01*
X7917710Y-8932360D01*
X7991146Y-8883291D01*
X8069039Y-8841656D01*
X8150637Y-8807856D01*
X8235156Y-8782217D01*
X8321780Y-8764985D01*
X8409677Y-8756328D01*
X9697999Y-8756318D01*
X9785895Y-8764975D01*
G37*
%TD.AperFunction*%
%TA.AperFunction,EtchedComponent*%
G36*
X9785895Y-8764975D02*
G01*
X9872520Y-8782205D01*
X9957039Y-8807842D01*
X10038638Y-8841641D01*
X10116531Y-8883275D01*
X10189968Y-8932344D01*
X10258243Y-8988374D01*
X10320696Y-9050826D01*
X10376727Y-9119100D01*
X10425797Y-9192536D01*
X10467432Y-9270429D01*
X10501232Y-9352027D01*
X10526871Y-9436546D01*
X10544102Y-9523170D01*
X10552760Y-9611067D01*
X10552761Y-9699389D01*
X10544104Y-9787285D01*
X10526874Y-9873910D01*
X10501236Y-9958429D01*
X10467438Y-10040028D01*
X10425804Y-10117921D01*
X10376735Y-10191358D01*
X10320705Y-10259633D01*
X10258252Y-10322086D01*
X10189979Y-10378117D01*
X10116543Y-10427187D01*
X10038650Y-10468822D01*
X9957052Y-10502622D01*
X9872533Y-10528261D01*
X9785908Y-10545492D01*
X9698012Y-10554150D01*
X9609690Y-10554151D01*
X8409690Y-10554159D01*
X8321794Y-10545503D01*
X8235169Y-10528273D01*
X8150650Y-10502635D01*
X8069051Y-10468836D01*
X7991158Y-10427202D01*
X7917720Y-10378134D01*
X7849446Y-10322104D01*
X7786993Y-10259651D01*
X7730962Y-10191378D01*
X7681892Y-10117941D01*
X7640257Y-10040049D01*
X7606457Y-9958450D01*
X7580818Y-9873932D01*
X7563587Y-9787307D01*
X7554929Y-9699411D01*
X7554928Y-9611089D01*
X7563585Y-9523192D01*
X7580815Y-9436567D01*
X7606453Y-9352049D01*
X7640251Y-9270450D01*
X7681885Y-9192556D01*
X7730954Y-9119119D01*
X7786984Y-9050845D01*
X7849436Y-8988392D01*
X7917710Y-8932360D01*
X7991146Y-8883291D01*
X8069039Y-8841656D01*
X8150637Y-8807856D01*
X8235156Y-8782217D01*
X8321780Y-8764985D01*
X8409677Y-8756328D01*
X9697999Y-8756318D01*
X9785895Y-8764975D01*
G37*
%TD.AperFunction*%
%TA.AperFunction,EtchedComponent*%
G36*
X-5454086Y-11305086D02*
G01*
X-5367461Y-11322317D01*
X-5282942Y-11347954D01*
X-5201343Y-11381753D01*
X-5123450Y-11423387D01*
X-5050013Y-11472456D01*
X-4981739Y-11528486D01*
X-4919285Y-11590938D01*
X-4863254Y-11659212D01*
X-4814185Y-11732648D01*
X-4772549Y-11810541D01*
X-4738749Y-11892139D01*
X-4713110Y-11976658D01*
X-4695879Y-12063282D01*
X-4687221Y-12151179D01*
X-4687221Y-12239501D01*
X-4695877Y-12327397D01*
X-4713107Y-12414022D01*
X-4738745Y-12498541D01*
X-4772544Y-12580140D01*
X-4814178Y-12658033D01*
X-4863246Y-12731470D01*
X-4919276Y-12799744D01*
X-4981729Y-12862198D01*
X-5050002Y-12918229D01*
X-5123439Y-12967299D01*
X-5201331Y-13008934D01*
X-5282930Y-13042734D01*
X-5367448Y-13068373D01*
X-5454073Y-13085604D01*
X-5541969Y-13094262D01*
X-5630291Y-13094263D01*
X-6830291Y-13094271D01*
X-6918188Y-13085615D01*
X-7004813Y-13068385D01*
X-7089332Y-13042747D01*
X-7170931Y-13008948D01*
X-7248824Y-12967314D01*
X-7322261Y-12918246D01*
X-7390535Y-12862216D01*
X-7452988Y-12799763D01*
X-7509020Y-12731490D01*
X-7558089Y-12658053D01*
X-7599724Y-12580161D01*
X-7633524Y-12498562D01*
X-7659163Y-12414044D01*
X-7676395Y-12327419D01*
X-7685052Y-12239523D01*
X-7685053Y-12151201D01*
X-7676397Y-12063304D01*
X-7659167Y-11976679D01*
X-7633529Y-11892160D01*
X-7599730Y-11810562D01*
X-7558096Y-11732668D01*
X-7509028Y-11659231D01*
X-7452997Y-11590957D01*
X-7390545Y-11528504D01*
X-7322272Y-11472472D01*
X-7248835Y-11423403D01*
X-7170942Y-11381768D01*
X-7089344Y-11347968D01*
X-7004825Y-11322329D01*
X-6918201Y-11305097D01*
X-6830304Y-11296440D01*
X-5541983Y-11296430D01*
X-5454086Y-11305086D01*
G37*
%TD.AperFunction*%
%TA.AperFunction,EtchedComponent*%
G36*
X-5454086Y-11305086D02*
G01*
X-5367461Y-11322317D01*
X-5282942Y-11347954D01*
X-5201343Y-11381753D01*
X-5123450Y-11423387D01*
X-5050013Y-11472456D01*
X-4981739Y-11528486D01*
X-4919285Y-11590938D01*
X-4863254Y-11659212D01*
X-4814185Y-11732648D01*
X-4772549Y-11810541D01*
X-4738749Y-11892139D01*
X-4713110Y-11976658D01*
X-4695879Y-12063282D01*
X-4687221Y-12151179D01*
X-4687221Y-12239501D01*
X-4695877Y-12327397D01*
X-4713107Y-12414022D01*
X-4738745Y-12498541D01*
X-4772544Y-12580140D01*
X-4814178Y-12658033D01*
X-4863246Y-12731470D01*
X-4919276Y-12799744D01*
X-4981729Y-12862198D01*
X-5050002Y-12918229D01*
X-5123439Y-12967299D01*
X-5201331Y-13008934D01*
X-5282930Y-13042734D01*
X-5367448Y-13068373D01*
X-5454073Y-13085604D01*
X-5541969Y-13094262D01*
X-5630291Y-13094263D01*
X-6830291Y-13094271D01*
X-6918188Y-13085615D01*
X-7004813Y-13068385D01*
X-7089332Y-13042747D01*
X-7170931Y-13008948D01*
X-7248824Y-12967314D01*
X-7322261Y-12918246D01*
X-7390535Y-12862216D01*
X-7452988Y-12799763D01*
X-7509020Y-12731490D01*
X-7558089Y-12658053D01*
X-7599724Y-12580161D01*
X-7633524Y-12498562D01*
X-7659163Y-12414044D01*
X-7676395Y-12327419D01*
X-7685052Y-12239523D01*
X-7685053Y-12151201D01*
X-7676397Y-12063304D01*
X-7659167Y-11976679D01*
X-7633529Y-11892160D01*
X-7599730Y-11810562D01*
X-7558096Y-11732668D01*
X-7509028Y-11659231D01*
X-7452997Y-11590957D01*
X-7390545Y-11528504D01*
X-7322272Y-11472472D01*
X-7248835Y-11423403D01*
X-7170942Y-11381768D01*
X-7089344Y-11347968D01*
X-7004825Y-11322329D01*
X-6918201Y-11305097D01*
X-6830304Y-11296440D01*
X-5541983Y-11296430D01*
X-5454086Y-11305086D01*
G37*
%TD.AperFunction*%
%TA.AperFunction,EtchedComponent*%
G36*
X9785877Y-6224975D02*
G01*
X9872502Y-6242205D01*
X9957020Y-6267842D01*
X10038619Y-6301641D01*
X10116513Y-6343275D01*
X10189950Y-6392344D01*
X10258224Y-6448374D01*
X10320677Y-6510826D01*
X10376709Y-6579100D01*
X10425778Y-6652536D01*
X10467413Y-6730429D01*
X10501213Y-6812027D01*
X10526852Y-6896546D01*
X10544084Y-6983170D01*
X10552741Y-7071067D01*
X10552742Y-7159389D01*
X10544086Y-7247285D01*
X10526856Y-7333910D01*
X10501218Y-7418429D01*
X10467419Y-7500028D01*
X10425785Y-7577921D01*
X10376716Y-7651358D01*
X10320686Y-7719633D01*
X10258234Y-7782086D01*
X10189960Y-7838117D01*
X10116524Y-7887187D01*
X10038631Y-7928822D01*
X9957033Y-7962622D01*
X9872514Y-7988261D01*
X9785890Y-8005492D01*
X9697993Y-8014150D01*
X9609671Y-8014151D01*
X8409671Y-8014159D01*
X8321775Y-8005503D01*
X8235150Y-7988273D01*
X8150631Y-7962635D01*
X8069032Y-7928836D01*
X7991139Y-7887202D01*
X7917702Y-7838134D01*
X7849428Y-7782104D01*
X7786974Y-7719651D01*
X7730943Y-7651378D01*
X7681873Y-7577941D01*
X7640238Y-7500049D01*
X7606438Y-7418450D01*
X7580799Y-7333932D01*
X7563568Y-7247307D01*
X7554910Y-7159411D01*
X7554910Y-7071089D01*
X7563566Y-6983192D01*
X7580796Y-6896567D01*
X7606434Y-6812049D01*
X7640233Y-6730450D01*
X7681867Y-6652556D01*
X7730935Y-6579119D01*
X7786965Y-6510845D01*
X7849418Y-6448392D01*
X7917691Y-6392360D01*
X7991128Y-6343291D01*
X8069020Y-6301656D01*
X8150619Y-6267856D01*
X8235137Y-6242217D01*
X8321762Y-6224985D01*
X8409658Y-6216328D01*
X9697980Y-6216318D01*
X9785877Y-6224975D01*
G37*
%TD.AperFunction*%
%TA.AperFunction,EtchedComponent*%
G36*
X9785877Y-6224975D02*
G01*
X9872502Y-6242205D01*
X9957020Y-6267842D01*
X10038619Y-6301641D01*
X10116513Y-6343275D01*
X10189950Y-6392344D01*
X10258224Y-6448374D01*
X10320677Y-6510826D01*
X10376709Y-6579100D01*
X10425778Y-6652536D01*
X10467413Y-6730429D01*
X10501213Y-6812027D01*
X10526852Y-6896546D01*
X10544084Y-6983170D01*
X10552741Y-7071067D01*
X10552742Y-7159389D01*
X10544086Y-7247285D01*
X10526856Y-7333910D01*
X10501218Y-7418429D01*
X10467419Y-7500028D01*
X10425785Y-7577921D01*
X10376716Y-7651358D01*
X10320686Y-7719633D01*
X10258234Y-7782086D01*
X10189960Y-7838117D01*
X10116524Y-7887187D01*
X10038631Y-7928822D01*
X9957033Y-7962622D01*
X9872514Y-7988261D01*
X9785890Y-8005492D01*
X9697993Y-8014150D01*
X9609671Y-8014151D01*
X8409671Y-8014159D01*
X8321775Y-8005503D01*
X8235150Y-7988273D01*
X8150631Y-7962635D01*
X8069032Y-7928836D01*
X7991139Y-7887202D01*
X7917702Y-7838134D01*
X7849428Y-7782104D01*
X7786974Y-7719651D01*
X7730943Y-7651378D01*
X7681873Y-7577941D01*
X7640238Y-7500049D01*
X7606438Y-7418450D01*
X7580799Y-7333932D01*
X7563568Y-7247307D01*
X7554910Y-7159411D01*
X7554910Y-7071089D01*
X7563566Y-6983192D01*
X7580796Y-6896567D01*
X7606434Y-6812049D01*
X7640233Y-6730450D01*
X7681867Y-6652556D01*
X7730935Y-6579119D01*
X7786965Y-6510845D01*
X7849418Y-6448392D01*
X7917691Y-6392360D01*
X7991128Y-6343291D01*
X8069020Y-6301656D01*
X8150619Y-6267856D01*
X8235137Y-6242217D01*
X8321762Y-6224985D01*
X8409658Y-6216328D01*
X9697980Y-6216318D01*
X9785877Y-6224975D01*
G37*
%TD.AperFunction*%
%TA.AperFunction,EtchedComponent*%
G36*
X5558457Y-6420503D02*
G01*
X5654706Y-6439649D01*
X5748616Y-6468136D01*
X5839281Y-6505690D01*
X5925829Y-6551951D01*
X6007426Y-6606472D01*
X6083285Y-6668728D01*
X6152678Y-6738120D01*
X6214934Y-6813980D01*
X6269455Y-6895577D01*
X6315716Y-6982124D01*
X6353271Y-7072789D01*
X6381758Y-7166699D01*
X6400904Y-7262949D01*
X6410523Y-7360611D01*
X6410523Y-7458747D01*
X6400904Y-7556410D01*
X6381759Y-7652659D01*
X6353272Y-7746569D01*
X6315717Y-7837234D01*
X6269456Y-7923782D01*
X6214935Y-8005379D01*
X6152679Y-8081238D01*
X6083287Y-8150631D01*
X6007427Y-8212887D01*
X5925831Y-8267408D01*
X5839283Y-8313669D01*
X5748618Y-8351224D01*
X5654708Y-8379711D01*
X5558459Y-8398856D01*
X5460796Y-8408476D01*
X5362661Y-8408476D01*
X5264998Y-8398857D01*
X5168748Y-8379712D01*
X5074838Y-8351225D01*
X4984173Y-8313670D01*
X4897625Y-8267409D01*
X4816029Y-8212888D01*
X4740169Y-8150632D01*
X4670777Y-8081240D01*
X4608520Y-8005380D01*
X4553999Y-7923784D01*
X4507738Y-7837236D01*
X4470183Y-7746571D01*
X4441696Y-7652661D01*
X4422551Y-7556412D01*
X4412932Y-7458749D01*
X4412932Y-7360613D01*
X4422551Y-7262951D01*
X4441696Y-7166701D01*
X4470183Y-7072791D01*
X4507737Y-6982126D01*
X4553998Y-6895578D01*
X4608519Y-6813982D01*
X4670775Y-6738122D01*
X4740168Y-6668730D01*
X4816027Y-6606473D01*
X4897624Y-6551952D01*
X4984171Y-6505691D01*
X5074836Y-6468136D01*
X5168746Y-6439649D01*
X5264996Y-6420504D01*
X5362659Y-6410885D01*
X5460794Y-6410885D01*
X5558457Y-6420503D01*
G37*
%TD.AperFunction*%
%TA.AperFunction,EtchedComponent*%
G36*
X5558457Y-6420503D02*
G01*
X5654706Y-6439649D01*
X5748616Y-6468136D01*
X5839281Y-6505690D01*
X5925829Y-6551951D01*
X6007426Y-6606472D01*
X6083285Y-6668728D01*
X6152678Y-6738120D01*
X6214934Y-6813980D01*
X6269455Y-6895577D01*
X6315716Y-6982124D01*
X6353271Y-7072789D01*
X6381758Y-7166699D01*
X6400904Y-7262949D01*
X6410523Y-7360611D01*
X6410523Y-7458747D01*
X6400904Y-7556410D01*
X6381759Y-7652659D01*
X6353272Y-7746569D01*
X6315717Y-7837234D01*
X6269456Y-7923782D01*
X6214935Y-8005379D01*
X6152679Y-8081238D01*
X6083287Y-8150631D01*
X6007427Y-8212887D01*
X5925831Y-8267408D01*
X5839283Y-8313669D01*
X5748618Y-8351224D01*
X5654708Y-8379711D01*
X5558459Y-8398856D01*
X5460796Y-8408476D01*
X5362661Y-8408476D01*
X5264998Y-8398857D01*
X5168748Y-8379712D01*
X5074838Y-8351225D01*
X4984173Y-8313670D01*
X4897625Y-8267409D01*
X4816029Y-8212888D01*
X4740169Y-8150632D01*
X4670777Y-8081240D01*
X4608520Y-8005380D01*
X4553999Y-7923784D01*
X4507738Y-7837236D01*
X4470183Y-7746571D01*
X4441696Y-7652661D01*
X4422551Y-7556412D01*
X4412932Y-7458749D01*
X4412932Y-7360613D01*
X4422551Y-7262951D01*
X4441696Y-7166701D01*
X4470183Y-7072791D01*
X4507737Y-6982126D01*
X4553998Y-6895578D01*
X4608519Y-6813982D01*
X4670775Y-6738122D01*
X4740168Y-6668730D01*
X4816027Y-6606473D01*
X4897624Y-6551952D01*
X4984171Y-6505691D01*
X5074836Y-6468136D01*
X5168746Y-6439649D01*
X5264996Y-6420504D01*
X5362659Y-6410885D01*
X5460794Y-6410885D01*
X5558457Y-6420503D01*
G37*
%TD.AperFunction*%
%TA.AperFunction,EtchedComponent*%
G36*
X5558465Y-8666203D02*
G01*
X5654715Y-8685349D01*
X5748624Y-8713836D01*
X5839290Y-8751390D01*
X5925837Y-8797651D01*
X6007434Y-8852172D01*
X6083294Y-8914428D01*
X6152686Y-8983820D01*
X6214942Y-9059680D01*
X6269464Y-9141277D01*
X6315724Y-9227824D01*
X6353279Y-9318489D01*
X6381766Y-9412399D01*
X6400912Y-9508649D01*
X6410531Y-9606311D01*
X6410531Y-9704447D01*
X6400912Y-9802110D01*
X6381767Y-9898359D01*
X6353280Y-9992269D01*
X6315725Y-10082934D01*
X6269465Y-10169482D01*
X6214944Y-10251079D01*
X6152687Y-10326938D01*
X6083295Y-10396331D01*
X6007436Y-10458587D01*
X5925839Y-10513108D01*
X5839291Y-10559369D01*
X5748626Y-10596924D01*
X5654717Y-10625411D01*
X5558467Y-10644556D01*
X5460804Y-10654176D01*
X5362669Y-10654176D01*
X5265006Y-10644557D01*
X5168756Y-10625412D01*
X5074847Y-10596925D01*
X4984181Y-10559370D01*
X4897634Y-10513109D01*
X4816037Y-10458588D01*
X4740177Y-10396332D01*
X4670785Y-10326940D01*
X4608529Y-10251080D01*
X4554007Y-10169484D01*
X4507747Y-10082936D01*
X4470192Y-9992271D01*
X4441704Y-9898361D01*
X4422559Y-9802112D01*
X4412940Y-9704449D01*
X4412940Y-9606313D01*
X4422559Y-9508651D01*
X4441704Y-9412401D01*
X4470191Y-9318491D01*
X4507746Y-9227826D01*
X4554006Y-9141278D01*
X4608527Y-9059682D01*
X4670784Y-8983822D01*
X4740176Y-8914430D01*
X4816035Y-8852173D01*
X4897632Y-8797652D01*
X4984179Y-8751391D01*
X5074845Y-8713836D01*
X5168754Y-8685349D01*
X5265004Y-8666204D01*
X5362667Y-8656585D01*
X5460802Y-8656585D01*
X5558465Y-8666203D01*
G37*
%TD.AperFunction*%
%TA.AperFunction,EtchedComponent*%
G36*
X5558465Y-8666203D02*
G01*
X5654715Y-8685349D01*
X5748624Y-8713836D01*
X5839290Y-8751390D01*
X5925837Y-8797651D01*
X6007434Y-8852172D01*
X6083294Y-8914428D01*
X6152686Y-8983820D01*
X6214942Y-9059680D01*
X6269464Y-9141277D01*
X6315724Y-9227824D01*
X6353279Y-9318489D01*
X6381766Y-9412399D01*
X6400912Y-9508649D01*
X6410531Y-9606311D01*
X6410531Y-9704447D01*
X6400912Y-9802110D01*
X6381767Y-9898359D01*
X6353280Y-9992269D01*
X6315725Y-10082934D01*
X6269465Y-10169482D01*
X6214944Y-10251079D01*
X6152687Y-10326938D01*
X6083295Y-10396331D01*
X6007436Y-10458587D01*
X5925839Y-10513108D01*
X5839291Y-10559369D01*
X5748626Y-10596924D01*
X5654717Y-10625411D01*
X5558467Y-10644556D01*
X5460804Y-10654176D01*
X5362669Y-10654176D01*
X5265006Y-10644557D01*
X5168756Y-10625412D01*
X5074847Y-10596925D01*
X4984181Y-10559370D01*
X4897634Y-10513109D01*
X4816037Y-10458588D01*
X4740177Y-10396332D01*
X4670785Y-10326940D01*
X4608529Y-10251080D01*
X4554007Y-10169484D01*
X4507747Y-10082936D01*
X4470192Y-9992271D01*
X4441704Y-9898361D01*
X4422559Y-9802112D01*
X4412940Y-9704449D01*
X4412940Y-9606313D01*
X4422559Y-9508651D01*
X4441704Y-9412401D01*
X4470191Y-9318491D01*
X4507746Y-9227826D01*
X4554006Y-9141278D01*
X4608527Y-9059682D01*
X4670784Y-8983822D01*
X4740176Y-8914430D01*
X4816035Y-8852173D01*
X4897632Y-8797652D01*
X4984179Y-8751391D01*
X5074845Y-8713836D01*
X5168754Y-8685349D01*
X5265004Y-8666204D01*
X5362667Y-8656585D01*
X5460802Y-8656585D01*
X5558465Y-8666203D01*
G37*
%TD.AperFunction*%
%TA.AperFunction,EtchedComponent*%
G36*
X9941260Y14837436D02*
G01*
X10023072Y14821163D01*
X10102896Y14796949D01*
X10179961Y14765027D01*
X10253527Y14725705D01*
X10322884Y14679362D01*
X10387364Y14626445D01*
X10446348Y14567461D01*
X10499266Y14502980D01*
X10545609Y14433623D01*
X10584930Y14360058D01*
X10616852Y14282992D01*
X10641066Y14203169D01*
X10657339Y14121357D01*
X10665515Y14038344D01*
X10665515Y13954929D01*
X10657339Y13871915D01*
X10641066Y13790103D01*
X10616852Y13710280D01*
X10584930Y13633214D01*
X10545609Y13559649D01*
X10499266Y13490292D01*
X10446348Y13425811D01*
X10387364Y13366828D01*
X10322884Y13313910D01*
X10253527Y13267567D01*
X10179961Y13228245D01*
X10102896Y13196324D01*
X10023072Y13172109D01*
X9941260Y13155836D01*
X9858247Y13147660D01*
X9774832Y13147660D01*
X9691818Y13155836D01*
X9610006Y13172109D01*
X9530183Y13196324D01*
X9453117Y13228245D01*
X9379552Y13267567D01*
X9310195Y13313910D01*
X9245714Y13366828D01*
X9186731Y13425811D01*
X9133813Y13490292D01*
X9087470Y13559649D01*
X9048148Y13633214D01*
X9016227Y13710280D01*
X8992013Y13790103D01*
X8975739Y13871915D01*
X8967563Y13954929D01*
X8967563Y14038344D01*
X8975739Y14121357D01*
X8992013Y14203169D01*
X9016227Y14282992D01*
X9048148Y14360058D01*
X9087470Y14433623D01*
X9133813Y14502980D01*
X9186731Y14567461D01*
X9245714Y14626445D01*
X9310195Y14679362D01*
X9379552Y14725705D01*
X9453117Y14765027D01*
X9530183Y14796949D01*
X9610006Y14821163D01*
X9691818Y14837436D01*
X9774832Y14845612D01*
X9858247Y14845612D01*
X9941260Y14837436D01*
G37*
%TD.AperFunction*%
%TA.AperFunction,EtchedComponent*%
G36*
X9941260Y14837436D02*
G01*
X10023072Y14821163D01*
X10102896Y14796949D01*
X10179961Y14765027D01*
X10253527Y14725705D01*
X10322884Y14679362D01*
X10387364Y14626445D01*
X10446348Y14567461D01*
X10499266Y14502980D01*
X10545609Y14433623D01*
X10584930Y14360058D01*
X10616852Y14282992D01*
X10641066Y14203169D01*
X10657339Y14121357D01*
X10665515Y14038344D01*
X10665515Y13954929D01*
X10657339Y13871915D01*
X10641066Y13790103D01*
X10616852Y13710280D01*
X10584930Y13633214D01*
X10545609Y13559649D01*
X10499266Y13490292D01*
X10446348Y13425811D01*
X10387364Y13366828D01*
X10322884Y13313910D01*
X10253527Y13267567D01*
X10179961Y13228245D01*
X10102896Y13196324D01*
X10023072Y13172109D01*
X9941260Y13155836D01*
X9858247Y13147660D01*
X9774832Y13147660D01*
X9691818Y13155836D01*
X9610006Y13172109D01*
X9530183Y13196324D01*
X9453117Y13228245D01*
X9379552Y13267567D01*
X9310195Y13313910D01*
X9245714Y13366828D01*
X9186731Y13425811D01*
X9133813Y13490292D01*
X9087470Y13559649D01*
X9048148Y13633214D01*
X9016227Y13710280D01*
X8992013Y13790103D01*
X8975739Y13871915D01*
X8967563Y13954929D01*
X8967563Y14038344D01*
X8975739Y14121357D01*
X8992013Y14203169D01*
X9016227Y14282992D01*
X9048148Y14360058D01*
X9087470Y14433623D01*
X9133813Y14502980D01*
X9186731Y14567461D01*
X9245714Y14626445D01*
X9310195Y14679362D01*
X9379552Y14725705D01*
X9453117Y14765027D01*
X9530183Y14796949D01*
X9610006Y14821163D01*
X9691818Y14837436D01*
X9774832Y14845612D01*
X9858247Y14845612D01*
X9941260Y14837436D01*
G37*
%TD.AperFunction*%
%TA.AperFunction,EtchedComponent*%
G36*
X9941260Y17377436D02*
G01*
X10023072Y17361163D01*
X10102896Y17336949D01*
X10179961Y17305027D01*
X10253527Y17265705D01*
X10322884Y17219362D01*
X10387364Y17166445D01*
X10446348Y17107461D01*
X10499266Y17042980D01*
X10545609Y16973623D01*
X10584930Y16900058D01*
X10616852Y16822992D01*
X10641066Y16743169D01*
X10657339Y16661357D01*
X10665515Y16578344D01*
X10665515Y16494929D01*
X10657339Y16411915D01*
X10641066Y16330103D01*
X10616852Y16250280D01*
X10584930Y16173214D01*
X10545609Y16099649D01*
X10499266Y16030292D01*
X10446348Y15965811D01*
X10387364Y15906828D01*
X10322884Y15853910D01*
X10253527Y15807567D01*
X10179961Y15768245D01*
X10102896Y15736324D01*
X10023072Y15712109D01*
X9941260Y15695836D01*
X9858247Y15687660D01*
X9774832Y15687660D01*
X9691818Y15695836D01*
X9610006Y15712109D01*
X9530183Y15736324D01*
X9453117Y15768245D01*
X9379552Y15807567D01*
X9310195Y15853910D01*
X9245714Y15906828D01*
X9186731Y15965811D01*
X9133813Y16030292D01*
X9087470Y16099649D01*
X9048148Y16173214D01*
X9016227Y16250280D01*
X8992013Y16330103D01*
X8975739Y16411915D01*
X8967563Y16494929D01*
X8967563Y16578344D01*
X8975739Y16661357D01*
X8992013Y16743169D01*
X9016227Y16822992D01*
X9048148Y16900058D01*
X9087470Y16973623D01*
X9133813Y17042980D01*
X9186731Y17107461D01*
X9245714Y17166445D01*
X9310195Y17219362D01*
X9379552Y17265705D01*
X9453117Y17305027D01*
X9530183Y17336949D01*
X9610006Y17361163D01*
X9691818Y17377436D01*
X9774832Y17385612D01*
X9858247Y17385612D01*
X9941260Y17377436D01*
G37*
%TD.AperFunction*%
%TA.AperFunction,EtchedComponent*%
G36*
X9941260Y17377436D02*
G01*
X10023072Y17361163D01*
X10102896Y17336949D01*
X10179961Y17305027D01*
X10253527Y17265705D01*
X10322884Y17219362D01*
X10387364Y17166445D01*
X10446348Y17107461D01*
X10499266Y17042980D01*
X10545609Y16973623D01*
X10584930Y16900058D01*
X10616852Y16822992D01*
X10641066Y16743169D01*
X10657339Y16661357D01*
X10665515Y16578344D01*
X10665515Y16494929D01*
X10657339Y16411915D01*
X10641066Y16330103D01*
X10616852Y16250280D01*
X10584930Y16173214D01*
X10545609Y16099649D01*
X10499266Y16030292D01*
X10446348Y15965811D01*
X10387364Y15906828D01*
X10322884Y15853910D01*
X10253527Y15807567D01*
X10179961Y15768245D01*
X10102896Y15736324D01*
X10023072Y15712109D01*
X9941260Y15695836D01*
X9858247Y15687660D01*
X9774832Y15687660D01*
X9691818Y15695836D01*
X9610006Y15712109D01*
X9530183Y15736324D01*
X9453117Y15768245D01*
X9379552Y15807567D01*
X9310195Y15853910D01*
X9245714Y15906828D01*
X9186731Y15965811D01*
X9133813Y16030292D01*
X9087470Y16099649D01*
X9048148Y16173214D01*
X9016227Y16250280D01*
X8992013Y16330103D01*
X8975739Y16411915D01*
X8967563Y16494929D01*
X8967563Y16578344D01*
X8975739Y16661357D01*
X8992013Y16743169D01*
X9016227Y16822992D01*
X9048148Y16900058D01*
X9087470Y16973623D01*
X9133813Y17042980D01*
X9186731Y17107461D01*
X9245714Y17166445D01*
X9310195Y17219362D01*
X9379552Y17265705D01*
X9453117Y17305027D01*
X9530183Y17336949D01*
X9610006Y17361163D01*
X9691818Y17377436D01*
X9774832Y17385612D01*
X9858247Y17385612D01*
X9941260Y17377436D01*
G37*
%TD.AperFunction*%
%TA.AperFunction,EtchedComponent*%
G36*
X9941260Y12297436D02*
G01*
X10023072Y12281163D01*
X10102896Y12256949D01*
X10179961Y12225027D01*
X10253527Y12185705D01*
X10322884Y12139362D01*
X10387364Y12086445D01*
X10446348Y12027461D01*
X10499266Y11962980D01*
X10545609Y11893623D01*
X10584930Y11820058D01*
X10616852Y11742992D01*
X10641066Y11663169D01*
X10657339Y11581357D01*
X10665515Y11498344D01*
X10665515Y11414929D01*
X10657339Y11331915D01*
X10641066Y11250103D01*
X10616852Y11170280D01*
X10584930Y11093214D01*
X10545609Y11019649D01*
X10499266Y10950292D01*
X10446348Y10885811D01*
X10387364Y10826828D01*
X10322884Y10773910D01*
X10253527Y10727567D01*
X10179961Y10688245D01*
X10102896Y10656324D01*
X10023072Y10632109D01*
X9941260Y10615836D01*
X9858247Y10607660D01*
X9774832Y10607660D01*
X9691818Y10615836D01*
X9610006Y10632109D01*
X9530183Y10656324D01*
X9453117Y10688245D01*
X9379552Y10727567D01*
X9310195Y10773910D01*
X9245714Y10826828D01*
X9186731Y10885811D01*
X9133813Y10950292D01*
X9087470Y11019649D01*
X9048148Y11093214D01*
X9016227Y11170280D01*
X8992013Y11250103D01*
X8975739Y11331915D01*
X8967563Y11414929D01*
X8967563Y11498344D01*
X8975739Y11581357D01*
X8992013Y11663169D01*
X9016227Y11742992D01*
X9048148Y11820058D01*
X9087470Y11893623D01*
X9133813Y11962980D01*
X9186731Y12027461D01*
X9245714Y12086445D01*
X9310195Y12139362D01*
X9379552Y12185705D01*
X9453117Y12225027D01*
X9530183Y12256949D01*
X9610006Y12281163D01*
X9691818Y12297436D01*
X9774832Y12305612D01*
X9858247Y12305612D01*
X9941260Y12297436D01*
G37*
%TD.AperFunction*%
%TA.AperFunction,EtchedComponent*%
G36*
X9941260Y12297436D02*
G01*
X10023072Y12281163D01*
X10102896Y12256949D01*
X10179961Y12225027D01*
X10253527Y12185705D01*
X10322884Y12139362D01*
X10387364Y12086445D01*
X10446348Y12027461D01*
X10499266Y11962980D01*
X10545609Y11893623D01*
X10584930Y11820058D01*
X10616852Y11742992D01*
X10641066Y11663169D01*
X10657339Y11581357D01*
X10665515Y11498344D01*
X10665515Y11414929D01*
X10657339Y11331915D01*
X10641066Y11250103D01*
X10616852Y11170280D01*
X10584930Y11093214D01*
X10545609Y11019649D01*
X10499266Y10950292D01*
X10446348Y10885811D01*
X10387364Y10826828D01*
X10322884Y10773910D01*
X10253527Y10727567D01*
X10179961Y10688245D01*
X10102896Y10656324D01*
X10023072Y10632109D01*
X9941260Y10615836D01*
X9858247Y10607660D01*
X9774832Y10607660D01*
X9691818Y10615836D01*
X9610006Y10632109D01*
X9530183Y10656324D01*
X9453117Y10688245D01*
X9379552Y10727567D01*
X9310195Y10773910D01*
X9245714Y10826828D01*
X9186731Y10885811D01*
X9133813Y10950292D01*
X9087470Y11019649D01*
X9048148Y11093214D01*
X9016227Y11170280D01*
X8992013Y11250103D01*
X8975739Y11331915D01*
X8967563Y11414929D01*
X8967563Y11498344D01*
X8975739Y11581357D01*
X8992013Y11663169D01*
X9016227Y11742992D01*
X9048148Y11820058D01*
X9087470Y11893623D01*
X9133813Y11962980D01*
X9186731Y12027461D01*
X9245714Y12086445D01*
X9310195Y12139362D01*
X9379552Y12185705D01*
X9453117Y12225027D01*
X9530183Y12256949D01*
X9610006Y12281163D01*
X9691818Y12297436D01*
X9774832Y12305612D01*
X9858247Y12305612D01*
X9941260Y12297436D01*
G37*
%TD.AperFunction*%
%TA.AperFunction,EtchedComponent*%
G36*
X124327Y25589500D02*
G01*
X206139Y25573227D01*
X285963Y25549014D01*
X363028Y25517092D01*
X436594Y25477771D01*
X505951Y25431428D01*
X570432Y25378511D01*
X629415Y25319527D01*
X682334Y25255047D01*
X728677Y25185690D01*
X767999Y25112125D01*
X799920Y25035059D01*
X824135Y24955236D01*
X840409Y24873424D01*
X848585Y24790411D01*
X848585Y24706996D01*
X840410Y24623982D01*
X824136Y24542170D01*
X799923Y24462347D01*
X768001Y24385281D01*
X728680Y24311715D01*
X682337Y24242358D01*
X629420Y24177877D01*
X570437Y24118894D01*
X505956Y24065975D01*
X436599Y24019632D01*
X363034Y23980310D01*
X285968Y23948389D01*
X206145Y23924174D01*
X124333Y23907900D01*
X41320Y23899724D01*
X-42095Y23899724D01*
X-125109Y23907900D01*
X-206921Y23924173D01*
X-286744Y23948386D01*
X-363810Y23980308D01*
X-437376Y24019629D01*
X-506733Y24065972D01*
X-571214Y24118889D01*
X-630197Y24177873D01*
X-683115Y24242353D01*
X-729459Y24311710D01*
X-768780Y24385275D01*
X-800702Y24462341D01*
X-824917Y24542164D01*
X-841190Y24623976D01*
X-849367Y24706989D01*
X-849367Y24790404D01*
X-841191Y24873418D01*
X-824918Y24955230D01*
X-800704Y25035053D01*
X-768783Y25112119D01*
X-729462Y25185685D01*
X-683119Y25255042D01*
X-630201Y25319523D01*
X-571218Y25378506D01*
X-506738Y25431425D01*
X-437381Y25477768D01*
X-363816Y25517090D01*
X-286750Y25549011D01*
X-206927Y25573226D01*
X-125115Y25589500D01*
X-42102Y25597676D01*
X41313Y25597676D01*
X124327Y25589500D01*
G37*
%TD.AperFunction*%
%TA.AperFunction,EtchedComponent*%
G36*
X124327Y25589500D02*
G01*
X206139Y25573227D01*
X285963Y25549014D01*
X363028Y25517092D01*
X436594Y25477771D01*
X505951Y25431428D01*
X570432Y25378511D01*
X629415Y25319527D01*
X682334Y25255047D01*
X728677Y25185690D01*
X767999Y25112125D01*
X799920Y25035059D01*
X824135Y24955236D01*
X840409Y24873424D01*
X848585Y24790411D01*
X848585Y24706996D01*
X840410Y24623982D01*
X824136Y24542170D01*
X799923Y24462347D01*
X768001Y24385281D01*
X728680Y24311715D01*
X682337Y24242358D01*
X629420Y24177877D01*
X570437Y24118894D01*
X505956Y24065975D01*
X436599Y24019632D01*
X363034Y23980310D01*
X285968Y23948389D01*
X206145Y23924174D01*
X124333Y23907900D01*
X41320Y23899724D01*
X-42095Y23899724D01*
X-125109Y23907900D01*
X-206921Y23924173D01*
X-286744Y23948386D01*
X-363810Y23980308D01*
X-437376Y24019629D01*
X-506733Y24065972D01*
X-571214Y24118889D01*
X-630197Y24177873D01*
X-683115Y24242353D01*
X-729459Y24311710D01*
X-768780Y24385275D01*
X-800702Y24462341D01*
X-824917Y24542164D01*
X-841190Y24623976D01*
X-849367Y24706989D01*
X-849367Y24790404D01*
X-841191Y24873418D01*
X-824918Y24955230D01*
X-800704Y25035053D01*
X-768783Y25112119D01*
X-729462Y25185685D01*
X-683119Y25255042D01*
X-630201Y25319523D01*
X-571218Y25378506D01*
X-506738Y25431425D01*
X-437381Y25477768D01*
X-363816Y25517090D01*
X-286750Y25549011D01*
X-206927Y25573226D01*
X-125115Y25589500D01*
X-42102Y25597676D01*
X41313Y25597676D01*
X124327Y25589500D01*
G37*
%TD.AperFunction*%
%TA.AperFunction,EtchedComponent*%
G36*
X-2415673Y25589491D02*
G01*
X-2333861Y25573218D01*
X-2254037Y25549004D01*
X-2176972Y25517083D01*
X-2103406Y25477762D01*
X-2034049Y25431419D01*
X-1969568Y25378501D01*
X-1910585Y25319518D01*
X-1857666Y25255038D01*
X-1811323Y25185681D01*
X-1772001Y25112115D01*
X-1740080Y25035050D01*
X-1715865Y24955227D01*
X-1699591Y24873415D01*
X-1691415Y24790401D01*
X-1691415Y24706986D01*
X-1699590Y24623973D01*
X-1715864Y24542161D01*
X-1740077Y24462337D01*
X-1771999Y24385272D01*
X-1811320Y24311706D01*
X-1857663Y24242349D01*
X-1910580Y24177868D01*
X-1969563Y24118884D01*
X-2034044Y24065966D01*
X-2103401Y24019623D01*
X-2176966Y23980301D01*
X-2254032Y23948379D01*
X-2333855Y23924165D01*
X-2415667Y23907891D01*
X-2498680Y23899715D01*
X-2582095Y23899714D01*
X-2665109Y23907890D01*
X-2746921Y23924163D01*
X-2826744Y23948377D01*
X-2903810Y23980298D01*
X-2977376Y24019620D01*
X-3046733Y24065962D01*
X-3111214Y24118880D01*
X-3170197Y24177863D01*
X-3223115Y24242344D01*
X-3269459Y24311701D01*
X-3308780Y24385266D01*
X-3340702Y24462331D01*
X-3364917Y24542154D01*
X-3381190Y24623967D01*
X-3389367Y24706980D01*
X-3389367Y24790395D01*
X-3381191Y24873408D01*
X-3364918Y24955221D01*
X-3340704Y25035044D01*
X-3308783Y25112110D01*
X-3269462Y25185675D01*
X-3223119Y25255033D01*
X-3170201Y25319513D01*
X-3111218Y25378497D01*
X-3046738Y25431415D01*
X-2977381Y25477758D01*
X-2903816Y25517080D01*
X-2826750Y25549002D01*
X-2746927Y25573216D01*
X-2665115Y25589490D01*
X-2582102Y25597667D01*
X-2498687Y25597667D01*
X-2415673Y25589491D01*
G37*
%TD.AperFunction*%
%TA.AperFunction,EtchedComponent*%
G36*
X-2415673Y25589491D02*
G01*
X-2333861Y25573218D01*
X-2254037Y25549004D01*
X-2176972Y25517083D01*
X-2103406Y25477762D01*
X-2034049Y25431419D01*
X-1969568Y25378501D01*
X-1910585Y25319518D01*
X-1857666Y25255038D01*
X-1811323Y25185681D01*
X-1772001Y25112115D01*
X-1740080Y25035050D01*
X-1715865Y24955227D01*
X-1699591Y24873415D01*
X-1691415Y24790401D01*
X-1691415Y24706986D01*
X-1699590Y24623973D01*
X-1715864Y24542161D01*
X-1740077Y24462337D01*
X-1771999Y24385272D01*
X-1811320Y24311706D01*
X-1857663Y24242349D01*
X-1910580Y24177868D01*
X-1969563Y24118884D01*
X-2034044Y24065966D01*
X-2103401Y24019623D01*
X-2176966Y23980301D01*
X-2254032Y23948379D01*
X-2333855Y23924165D01*
X-2415667Y23907891D01*
X-2498680Y23899715D01*
X-2582095Y23899714D01*
X-2665109Y23907890D01*
X-2746921Y23924163D01*
X-2826744Y23948377D01*
X-2903810Y23980298D01*
X-2977376Y24019620D01*
X-3046733Y24065962D01*
X-3111214Y24118880D01*
X-3170197Y24177863D01*
X-3223115Y24242344D01*
X-3269459Y24311701D01*
X-3308780Y24385266D01*
X-3340702Y24462331D01*
X-3364917Y24542154D01*
X-3381190Y24623967D01*
X-3389367Y24706980D01*
X-3389367Y24790395D01*
X-3381191Y24873408D01*
X-3364918Y24955221D01*
X-3340704Y25035044D01*
X-3308783Y25112110D01*
X-3269462Y25185675D01*
X-3223119Y25255033D01*
X-3170201Y25319513D01*
X-3111218Y25378497D01*
X-3046738Y25431415D01*
X-2977381Y25477758D01*
X-2903816Y25517080D01*
X-2826750Y25549002D01*
X-2746927Y25573216D01*
X-2665115Y25589490D01*
X-2582102Y25597667D01*
X-2498687Y25597667D01*
X-2415673Y25589491D01*
G37*
%TD.AperFunction*%
%TA.AperFunction,EtchedComponent*%
G36*
X2664327Y25589510D02*
G01*
X2746139Y25573237D01*
X2825963Y25549023D01*
X2903028Y25517102D01*
X2976594Y25477780D01*
X3045951Y25431438D01*
X3110432Y25378520D01*
X3169415Y25319537D01*
X3222334Y25255056D01*
X3268677Y25185699D01*
X3307999Y25112134D01*
X3339920Y25035069D01*
X3364135Y24955246D01*
X3380409Y24873433D01*
X3388585Y24790420D01*
X3388585Y24707005D01*
X3380410Y24623992D01*
X3364136Y24542179D01*
X3339923Y24462356D01*
X3308001Y24385290D01*
X3268680Y24311725D01*
X3222337Y24242367D01*
X3169420Y24177887D01*
X3110437Y24118903D01*
X3045956Y24065985D01*
X2976599Y24019642D01*
X2903034Y23980320D01*
X2825968Y23948398D01*
X2746145Y23924184D01*
X2664333Y23907910D01*
X2581320Y23899733D01*
X2497905Y23899733D01*
X2414891Y23907909D01*
X2333079Y23924182D01*
X2253256Y23948396D01*
X2176190Y23980317D01*
X2102624Y24019638D01*
X2033267Y24065981D01*
X1968786Y24118899D01*
X1909803Y24177882D01*
X1856885Y24242362D01*
X1810541Y24311719D01*
X1771220Y24385285D01*
X1739298Y24462350D01*
X1715083Y24542173D01*
X1698810Y24623985D01*
X1690633Y24706999D01*
X1690633Y24790414D01*
X1698809Y24873427D01*
X1715082Y24955239D01*
X1739296Y25035063D01*
X1771217Y25112128D01*
X1810538Y25185694D01*
X1856881Y25255051D01*
X1909799Y25319532D01*
X1968782Y25378516D01*
X2033262Y25431434D01*
X2102619Y25477777D01*
X2176184Y25517099D01*
X2253250Y25549021D01*
X2333073Y25573235D01*
X2414885Y25589509D01*
X2497898Y25597685D01*
X2581313Y25597686D01*
X2664327Y25589510D01*
G37*
%TD.AperFunction*%
%TA.AperFunction,EtchedComponent*%
G36*
X2664327Y25589510D02*
G01*
X2746139Y25573237D01*
X2825963Y25549023D01*
X2903028Y25517102D01*
X2976594Y25477780D01*
X3045951Y25431438D01*
X3110432Y25378520D01*
X3169415Y25319537D01*
X3222334Y25255056D01*
X3268677Y25185699D01*
X3307999Y25112134D01*
X3339920Y25035069D01*
X3364135Y24955246D01*
X3380409Y24873433D01*
X3388585Y24790420D01*
X3388585Y24707005D01*
X3380410Y24623992D01*
X3364136Y24542179D01*
X3339923Y24462356D01*
X3308001Y24385290D01*
X3268680Y24311725D01*
X3222337Y24242367D01*
X3169420Y24177887D01*
X3110437Y24118903D01*
X3045956Y24065985D01*
X2976599Y24019642D01*
X2903034Y23980320D01*
X2825968Y23948398D01*
X2746145Y23924184D01*
X2664333Y23907910D01*
X2581320Y23899733D01*
X2497905Y23899733D01*
X2414891Y23907909D01*
X2333079Y23924182D01*
X2253256Y23948396D01*
X2176190Y23980317D01*
X2102624Y24019638D01*
X2033267Y24065981D01*
X1968786Y24118899D01*
X1909803Y24177882D01*
X1856885Y24242362D01*
X1810541Y24311719D01*
X1771220Y24385285D01*
X1739298Y24462350D01*
X1715083Y24542173D01*
X1698810Y24623985D01*
X1690633Y24706999D01*
X1690633Y24790414D01*
X1698809Y24873427D01*
X1715082Y24955239D01*
X1739296Y25035063D01*
X1771217Y25112128D01*
X1810538Y25185694D01*
X1856881Y25255051D01*
X1909799Y25319532D01*
X1968782Y25378516D01*
X2033262Y25431434D01*
X2102619Y25477777D01*
X2176184Y25517099D01*
X2253250Y25549021D01*
X2333073Y25573235D01*
X2414885Y25589509D01*
X2497898Y25597685D01*
X2581313Y25597686D01*
X2664327Y25589510D01*
G37*
%TD.AperFunction*%
%TA.AperFunction,EtchedComponent*%
G36*
X-7660765Y17577072D02*
G01*
X-10660765Y17577061D01*
X-10660776Y20577061D01*
X-7660776Y20577072D01*
X-7660765Y17577072D01*
G37*
%TD.AperFunction*%
%TA.AperFunction,EtchedComponent*%
G36*
X-7660765Y17577072D02*
G01*
X-10660765Y17577061D01*
X-10660776Y20577061D01*
X-7660776Y20577072D01*
X-7660765Y17577072D01*
G37*
%TD.AperFunction*%
%TA.AperFunction,EtchedComponent*%
G36*
X-7660746Y12497072D02*
G01*
X-10660746Y12497061D01*
X-10660757Y15497061D01*
X-7660757Y15497072D01*
X-7660746Y12497072D01*
G37*
%TD.AperFunction*%
%TA.AperFunction,EtchedComponent*%
G36*
X-7660746Y12497072D02*
G01*
X-10660746Y12497061D01*
X-10660757Y15497061D01*
X-7660757Y15497072D01*
X-7660746Y12497072D01*
G37*
%TD.AperFunction*%
%TD*%
D11*
%TO.P,,GPIO3_A1_D1*%
%TO.N,N/C*%
X9053863Y-12195239D03*
%TO.P,,3V3*%
X-6186156Y-9655351D03*
%TO.P,,D9_MISO_GPIO9*%
X-6186193Y-4575351D03*
%TO.P,,5V*%
X-6186118Y-14735351D03*
%TO.P,,D8_SCK_GPIO8*%
X-6186212Y-2035351D03*
%TO.P,,D10_MOSI_D10*%
X-6186174Y-7115351D03*
%TO.P,,GPIO21_TX_D6*%
X9053770Y504761D03*
%TO.P,,D7_RX_GPIO20*%
X-6186230Y504649D03*
%TO.P,,GPIO6_SDA_D4*%
X9053807Y-4575239D03*
%TO.P,,GPIO7_SCL_D5*%
X9053788Y-2035239D03*
%TO.P,,GPIO2_A0_D0*%
X9053882Y-14735239D03*
%TO.P,,GPIO4_A2_D2*%
X9053844Y-9655239D03*
%TO.P,,GND*%
X-6186137Y-12195351D03*
%TO.P,,GPIO5_A3_D3*%
X9053826Y-7115239D03*
D12*
%TO.P,,BAT+ pogo*%
X5411727Y-7409680D03*
%TO.P,,GND pogo*%
X5411735Y-9655380D03*
%TD*%
D13*
%TO.P,,Pin_2*%
%TO.N,N/C*%
X9816539Y13996636D03*
%TO.P,,Pin_1*%
X9816539Y16536636D03*
%TO.P,,Pin_3*%
X9816539Y11456636D03*
D14*
%TO.P,,Pin_2*%
X-391Y24748700D03*
%TO.P,,Pin_1*%
X-2540391Y24748691D03*
%TO.P,,Pin_3*%
X2539609Y24748709D03*
%TO.P,,BAT-*%
X-9160770Y19077066D03*
%TO.P,,BAT+*%
X-9160751Y13997066D03*
%TD*%
D15*
%TO.N,Net 3*%
X5411735Y-9655380D02*
X-265Y-9655400D01*
X-5671970Y19077079D02*
X-3999770Y19077085D01*
X-2540255Y-12195309D02*
X-6186055Y-12195323D01*
X-9160770Y19077066D02*
X-5671970Y19077079D01*
X15Y23076900D02*
X9Y24748300D01*
X-3999770Y19077085D02*
X15Y23076900D01*
X15Y23076900D02*
X9Y24748700D01*
X-265Y-9655400D02*
X-2540255Y-12195409D01*
X-2540255Y-12195309D02*
X-6186055Y-12195323D01*
X-9160770Y19077066D02*
X-5671970Y19077079D01*
X-5671970Y19077079D02*
X-3999770Y19077085D01*
X5411735Y-9655380D02*
X-265Y-9655400D01*
X-3999770Y19077085D02*
X15Y23076900D01*
X-265Y-9655400D02*
X-2540255Y-12195409D01*
X9Y24748300D02*
X-791Y24749100D01*
X-9160770Y19077066D02*
X-5671970Y19077079D01*
%TO.N,Net 2*%
X-9160751Y13997066D02*
X9816049Y13997136D01*
X9816149Y13997036D02*
X9816549Y13996636D01*
X-9160751Y13997066D02*
X9816449Y13997136D01*
%TD*%
M02*
