%TF.GenerationSoftware,Flux,Pcbnew,9.0.1-9.0.1-0~ubuntu22.04.1*%
%TF.CreationDate,2025-07-26T15:57:35+00:00*%
%TF.ProjectId,input,696e7075-742e-46b6-9963-61645f706362,rev?*%
%TF.SameCoordinates,Original*%
%TF.FileFunction,Profile,NP*%
%FSLAX46Y46*%
G04 Gerber Fmt 4.6, Leading zero omitted, Abs format (unit mm)*
G04 Filename: myoesp32*
G04 Build it with Flux! Visit our site at: https://www.flux.ai (PCBNEW 9.0.1-9.0.1-0~ubuntu22.04.1) date 2025-07-26 15:57:35*
%MOMM*%
%LPD*%
G01*
G04 APERTURE LIST*
%TA.AperFunction,Profile*%
%ADD10C,0.050000*%
%TD*%
G04 APERTURE END LIST*
D10*
X11500084Y-22999958D02*
X11499859Y-23036772D01*
X11499859Y-23036772D02*
X11499181Y-23073581D01*
X11499181Y-23073581D02*
X11498052Y-23110379D01*
X11498052Y-23110379D02*
X11496471Y-23147161D01*
X11496471Y-23147161D02*
X11494439Y-23183920D01*
X11494439Y-23183920D02*
X11491957Y-23220651D01*
X11491957Y-23220651D02*
X11489023Y-23257350D01*
X11489023Y-23257350D02*
X11485640Y-23294009D01*
X11485640Y-23294009D02*
X11481807Y-23330624D01*
X11481807Y-23330624D02*
X11477524Y-23367190D01*
X11477524Y-23367190D02*
X11472794Y-23403700D01*
X11472794Y-23403700D02*
X11467616Y-23440149D01*
X11467616Y-23440149D02*
X11461990Y-23476532D01*
X11461990Y-23476532D02*
X11455919Y-23512844D01*
X11455919Y-23512844D02*
X11449403Y-23549078D01*
X11449403Y-23549078D02*
X11442442Y-23585229D01*
X11442442Y-23585229D02*
X11435039Y-23621292D01*
X11435039Y-23621292D02*
X11427193Y-23657262D01*
X11427193Y-23657262D02*
X11418907Y-23693132D01*
X11418907Y-23693132D02*
X11410181Y-23728899D01*
X11410181Y-23728899D02*
X11401017Y-23764555D01*
X11401017Y-23764555D02*
X11391416Y-23800096D01*
X11391416Y-23800096D02*
X11381379Y-23835517D01*
X11381379Y-23835517D02*
X11370909Y-23870812D01*
X11370909Y-23870812D02*
X11360006Y-23905976D01*
X11360006Y-23905976D02*
X11348672Y-23941004D01*
X11348672Y-23941004D02*
X11336910Y-23975889D01*
X11336910Y-23975889D02*
X11324720Y-24010628D01*
X11324720Y-24010628D02*
X11312105Y-24045214D01*
X11312105Y-24045214D02*
X11299067Y-24079644D01*
X11299067Y-24079644D02*
X11285607Y-24113910D01*
X11285607Y-24113910D02*
X11271727Y-24148009D01*
X11271727Y-24148009D02*
X11257430Y-24181935D01*
X11257430Y-24181935D02*
X11242718Y-24215683D01*
X11242718Y-24215683D02*
X11227593Y-24249247D01*
X11227593Y-24249247D02*
X11212057Y-24282624D01*
X11212057Y-24282624D02*
X11196113Y-24315808D01*
X11196113Y-24315808D02*
X11179762Y-24348793D01*
X11179762Y-24348793D02*
X11163008Y-24381575D01*
X11163008Y-24381575D02*
X11145853Y-24414149D01*
X11145853Y-24414149D02*
X11128300Y-24446510D01*
X11128300Y-24446510D02*
X11110351Y-24478654D01*
X11110351Y-24478654D02*
X11092009Y-24510574D01*
X11092009Y-24510574D02*
X11073276Y-24542268D01*
X11073276Y-24542268D02*
X11054156Y-24573728D01*
X11054156Y-24573728D02*
X11034651Y-24604952D01*
X11034651Y-24604952D02*
X11014765Y-24635935D01*
X11014765Y-24635935D02*
X10994499Y-24666670D01*
X10994499Y-24666670D02*
X10973859Y-24697155D01*
X10973859Y-24697155D02*
X10952845Y-24727384D01*
X10952845Y-24727384D02*
X10931463Y-24757353D01*
X10931463Y-24757353D02*
X10909714Y-24787058D01*
X10909714Y-24787058D02*
X10887602Y-24816493D01*
X10887602Y-24816493D02*
X10865131Y-24845655D01*
X10865131Y-24845655D02*
X10842303Y-24874539D01*
X10842303Y-24874539D02*
X10819123Y-24903140D01*
X10819123Y-24903140D02*
X10795593Y-24931455D01*
X10795593Y-24931455D02*
X10771718Y-24959479D01*
X10771718Y-24959479D02*
X10747501Y-24987208D01*
X10747501Y-24987208D02*
X10722945Y-25014637D01*
X10722945Y-25014637D02*
X10698055Y-25041764D01*
X10698055Y-25041764D02*
X10672833Y-25068582D01*
X10672833Y-25068582D02*
X10647285Y-25095090D01*
X10647285Y-25095090D02*
X10621413Y-25121281D01*
X10621413Y-25121281D02*
X10595221Y-25147154D01*
X10595221Y-25147154D02*
X10568714Y-25172702D01*
X10568714Y-25172702D02*
X10541896Y-25197924D01*
X10541896Y-25197924D02*
X10514770Y-25222815D01*
X10514770Y-25222815D02*
X10487340Y-25247371D01*
X10487340Y-25247371D02*
X10459611Y-25271588D01*
X10459611Y-25271588D02*
X10431588Y-25295463D01*
X10431588Y-25295463D02*
X10403273Y-25318993D01*
X10403273Y-25318993D02*
X10374672Y-25342174D01*
X10374672Y-25342174D02*
X10345788Y-25365001D01*
X10345788Y-25365001D02*
X10316626Y-25387473D01*
X10316626Y-25387473D02*
X10287191Y-25409585D01*
X10287191Y-25409585D02*
X10257487Y-25431334D01*
X10257487Y-25431334D02*
X10227518Y-25452717D01*
X10227518Y-25452717D02*
X10197289Y-25473730D01*
X10197289Y-25473730D02*
X10166804Y-25494371D01*
X10166804Y-25494371D02*
X10136069Y-25514637D01*
X10136069Y-25514637D02*
X10105087Y-25534524D01*
X10105087Y-25534524D02*
X10073863Y-25554029D01*
X10073863Y-25554029D02*
X10042402Y-25573149D01*
X10042402Y-25573149D02*
X10010709Y-25591882D01*
X10010709Y-25591882D02*
X9978789Y-25610224D01*
X9978789Y-25610224D02*
X9946645Y-25628174D01*
X9946645Y-25628174D02*
X9914284Y-25645727D01*
X9914284Y-25645727D02*
X9881710Y-25662883D01*
X9881710Y-25662883D02*
X9848928Y-25679637D01*
X9848928Y-25679637D02*
X9815943Y-25695987D01*
X9815943Y-25695987D02*
X9782760Y-25711932D01*
X9782760Y-25711932D02*
X9749383Y-25727468D01*
X9749383Y-25727468D02*
X9715818Y-25742594D01*
X9715818Y-25742594D02*
X9682071Y-25757306D01*
X9682071Y-25757306D02*
X9648145Y-25771603D01*
X9648145Y-25771603D02*
X9614046Y-25785483D01*
X9614046Y-25785483D02*
X9579780Y-25798943D01*
X9579780Y-25798943D02*
X9545351Y-25811982D01*
X9545351Y-25811982D02*
X9510764Y-25824597D01*
X9510764Y-25824597D02*
X9476026Y-25836787D01*
X9476026Y-25836787D02*
X9441140Y-25848550D01*
X9441140Y-25848550D02*
X9406113Y-25859884D01*
X9406113Y-25859884D02*
X9370949Y-25870787D01*
X9370949Y-25870787D02*
X9335654Y-25881257D01*
X9335654Y-25881257D02*
X9300233Y-25891294D01*
X9300233Y-25891294D02*
X9264692Y-25900895D01*
X9264692Y-25900895D02*
X9229036Y-25910060D01*
X9229036Y-25910060D02*
X9193270Y-25918786D01*
X9193270Y-25918786D02*
X9157399Y-25927073D01*
X9157399Y-25927073D02*
X9121429Y-25934919D01*
X9121429Y-25934919D02*
X9085366Y-25942322D01*
X9085366Y-25942322D02*
X9049215Y-25949283D01*
X9049215Y-25949283D02*
X9012981Y-25955800D01*
X9012981Y-25955800D02*
X8976670Y-25961871D01*
X8976670Y-25961871D02*
X8940287Y-25967497D01*
X8940287Y-25967497D02*
X8903838Y-25972675D01*
X8903838Y-25972675D02*
X8867327Y-25977406D01*
X8867327Y-25977406D02*
X8830762Y-25981688D01*
X8830762Y-25981688D02*
X8794147Y-25985522D01*
X8794147Y-25985522D02*
X8757487Y-25988906D01*
X8757487Y-25988906D02*
X8720789Y-25991839D01*
X8720789Y-25991839D02*
X8684058Y-25994322D01*
X8684058Y-25994322D02*
X8647299Y-25996355D01*
X8647299Y-25996355D02*
X8610517Y-25997936D01*
X8610517Y-25997936D02*
X8573719Y-25999065D01*
X8573719Y-25999065D02*
X8536910Y-25999743D01*
X8536910Y-25999743D02*
X8500096Y-25999969D01*
X8500096Y-25999969D02*
X-8499904Y-26000031D01*
X-8499904Y-26000031D02*
X-8536719Y-25999805D01*
X-8536719Y-25999805D02*
X-8573528Y-25999128D01*
X-8573528Y-25999128D02*
X-8610326Y-25997999D01*
X-8610326Y-25997999D02*
X-8647108Y-25996418D01*
X-8647108Y-25996418D02*
X-8683867Y-25994386D01*
X-8683867Y-25994386D02*
X-8720598Y-25991903D01*
X-8720598Y-25991903D02*
X-8757296Y-25988970D01*
X-8757296Y-25988970D02*
X-8793956Y-25985586D01*
X-8793956Y-25985586D02*
X-8830571Y-25981753D01*
X-8830571Y-25981753D02*
X-8867137Y-25977471D01*
X-8867137Y-25977471D02*
X-8903647Y-25972741D01*
X-8903647Y-25972741D02*
X-8940096Y-25967562D01*
X-8940096Y-25967562D02*
X-8976479Y-25961937D01*
X-8976479Y-25961937D02*
X-9012790Y-25955866D01*
X-9012790Y-25955866D02*
X-9049024Y-25949350D01*
X-9049024Y-25949350D02*
X-9085176Y-25942389D01*
X-9085176Y-25942389D02*
X-9121239Y-25934986D01*
X-9121239Y-25934986D02*
X-9157208Y-25927140D01*
X-9157208Y-25927140D02*
X-9193079Y-25918854D01*
X-9193079Y-25918854D02*
X-9228845Y-25910128D01*
X-9228845Y-25910128D02*
X-9264502Y-25900963D01*
X-9264502Y-25900963D02*
X-9300043Y-25891362D01*
X-9300043Y-25891362D02*
X-9335464Y-25881326D01*
X-9335464Y-25881326D02*
X-9370759Y-25870855D01*
X-9370759Y-25870855D02*
X-9405923Y-25859953D01*
X-9405923Y-25859953D02*
X-9440950Y-25848619D01*
X-9440950Y-25848619D02*
X-9475836Y-25836857D01*
X-9475836Y-25836857D02*
X-9510575Y-25824667D01*
X-9510575Y-25824667D02*
X-9545161Y-25812052D01*
X-9545161Y-25812052D02*
X-9579590Y-25799014D01*
X-9579590Y-25799014D02*
X-9613857Y-25785554D01*
X-9613857Y-25785554D02*
X-9647956Y-25771674D01*
X-9647956Y-25771674D02*
X-9681882Y-25757377D01*
X-9681882Y-25757377D02*
X-9715629Y-25742665D01*
X-9715629Y-25742665D02*
X-9749194Y-25727540D01*
X-9749194Y-25727540D02*
X-9782571Y-25712004D01*
X-9782571Y-25712004D02*
X-9815754Y-25696059D01*
X-9815754Y-25696059D02*
X-9848740Y-25679709D01*
X-9848740Y-25679709D02*
X-9881522Y-25662955D01*
X-9881522Y-25662955D02*
X-9914096Y-25645800D01*
X-9914096Y-25645800D02*
X-9946457Y-25628247D01*
X-9946457Y-25628247D02*
X-9978601Y-25610298D01*
X-9978601Y-25610298D02*
X-10010521Y-25591955D01*
X-10010521Y-25591955D02*
X-10042214Y-25573223D01*
X-10042214Y-25573223D02*
X-10073675Y-25554103D01*
X-10073675Y-25554103D02*
X-10104899Y-25534598D01*
X-10104899Y-25534598D02*
X-10135881Y-25514711D01*
X-10135881Y-25514711D02*
X-10166617Y-25494446D01*
X-10166617Y-25494446D02*
X-10197102Y-25473805D01*
X-10197102Y-25473805D02*
X-10227331Y-25452792D01*
X-10227331Y-25452792D02*
X-10257300Y-25431409D01*
X-10257300Y-25431409D02*
X-10287005Y-25409660D01*
X-10287005Y-25409660D02*
X-10316440Y-25387549D01*
X-10316440Y-25387549D02*
X-10345602Y-25365077D01*
X-10345602Y-25365077D02*
X-10374485Y-25342250D01*
X-10374485Y-25342250D02*
X-10403087Y-25319070D01*
X-10403087Y-25319070D02*
X-10431402Y-25295540D01*
X-10431402Y-25295540D02*
X-10459426Y-25271665D01*
X-10459426Y-25271665D02*
X-10487155Y-25247448D01*
X-10487155Y-25247448D02*
X-10514584Y-25222892D01*
X-10514584Y-25222892D02*
X-10541710Y-25198002D01*
X-10541710Y-25198002D02*
X-10568529Y-25172780D01*
X-10568529Y-25172780D02*
X-10595036Y-25147231D01*
X-10595036Y-25147231D02*
X-10621228Y-25121359D01*
X-10621228Y-25121359D02*
X-10647100Y-25095168D01*
X-10647100Y-25095168D02*
X-10672649Y-25068661D01*
X-10672649Y-25068661D02*
X-10697871Y-25041842D01*
X-10697871Y-25041842D02*
X-10722761Y-25014716D01*
X-10722761Y-25014716D02*
X-10747317Y-24987287D01*
X-10747317Y-24987287D02*
X-10771535Y-24959558D01*
X-10771535Y-24959558D02*
X-10795410Y-24931534D01*
X-10795410Y-24931534D02*
X-10818940Y-24903220D01*
X-10818940Y-24903220D02*
X-10842120Y-24874618D01*
X-10842120Y-24874618D02*
X-10864948Y-24845735D01*
X-10864948Y-24845735D02*
X-10887420Y-24816573D01*
X-10887420Y-24816573D02*
X-10909532Y-24787138D01*
X-10909532Y-24787138D02*
X-10931281Y-24757434D01*
X-10931281Y-24757434D02*
X-10952664Y-24727465D01*
X-10952664Y-24727465D02*
X-10973677Y-24697236D01*
X-10973677Y-24697236D02*
X-10994318Y-24666751D01*
X-10994318Y-24666751D02*
X-11014584Y-24636015D01*
X-11014584Y-24636015D02*
X-11034470Y-24605033D01*
X-11034470Y-24605033D02*
X-11053975Y-24573810D01*
X-11053975Y-24573810D02*
X-11073096Y-24542349D01*
X-11073096Y-24542349D02*
X-11091829Y-24510656D01*
X-11091829Y-24510656D02*
X-11110171Y-24478735D01*
X-11110171Y-24478735D02*
X-11128120Y-24446592D01*
X-11128120Y-24446592D02*
X-11145674Y-24414231D01*
X-11145674Y-24414231D02*
X-11162829Y-24381657D01*
X-11162829Y-24381657D02*
X-11179583Y-24348875D01*
X-11179583Y-24348875D02*
X-11195934Y-24315890D01*
X-11195934Y-24315890D02*
X-11211879Y-24282706D01*
X-11211879Y-24282706D02*
X-11227415Y-24249330D01*
X-11227415Y-24249330D02*
X-11242540Y-24215765D01*
X-11242540Y-24215765D02*
X-11257253Y-24182017D01*
X-11257253Y-24182017D02*
X-11271550Y-24148092D01*
X-11271550Y-24148092D02*
X-11285430Y-24113993D01*
X-11285430Y-24113993D02*
X-11298890Y-24079727D01*
X-11298890Y-24079727D02*
X-11311929Y-24045298D01*
X-11311929Y-24045298D02*
X-11324544Y-24010711D01*
X-11324544Y-24010711D02*
X-11336734Y-23975973D01*
X-11336734Y-23975973D02*
X-11348497Y-23941087D01*
X-11348497Y-23941087D02*
X-11359830Y-23906060D01*
X-11359830Y-23906060D02*
X-11370733Y-23870896D01*
X-11370733Y-23870896D02*
X-11381204Y-23835601D01*
X-11381204Y-23835601D02*
X-11391241Y-23800180D01*
X-11391241Y-23800180D02*
X-11400842Y-23764639D01*
X-11400842Y-23764639D02*
X-11410007Y-23728982D01*
X-11410007Y-23728982D02*
X-11418733Y-23693216D01*
X-11418733Y-23693216D02*
X-11427019Y-23657346D01*
X-11427019Y-23657346D02*
X-11434865Y-23621376D01*
X-11434865Y-23621376D02*
X-11442269Y-23585313D01*
X-11442269Y-23585313D02*
X-11449230Y-23549162D01*
X-11449230Y-23549162D02*
X-11455747Y-23512928D01*
X-11455747Y-23512928D02*
X-11461818Y-23476617D01*
X-11461818Y-23476617D02*
X-11467443Y-23440234D01*
X-11467443Y-23440234D02*
X-11472622Y-23403784D01*
X-11472622Y-23403784D02*
X-11477353Y-23367274D01*
X-11477353Y-23367274D02*
X-11481635Y-23330709D01*
X-11481635Y-23330709D02*
X-11485469Y-23294094D01*
X-11485469Y-23294094D02*
X-11488852Y-23257434D01*
X-11488852Y-23257434D02*
X-11491786Y-23220736D01*
X-11491786Y-23220736D02*
X-11494269Y-23184004D01*
X-11494269Y-23184004D02*
X-11496301Y-23147245D01*
X-11496301Y-23147245D02*
X-11497882Y-23110464D01*
X-11497882Y-23110464D02*
X-11499012Y-23073666D01*
X-11499012Y-23073666D02*
X-11499689Y-23036857D01*
X-11499689Y-23036857D02*
X-11499916Y-23000042D01*
X-11499916Y-23000042D02*
X-11500084Y22999958D01*
X-11500084Y22999958D02*
X-11499859Y23036772D01*
X-11499859Y23036772D02*
X-11499181Y23073581D01*
X-11499181Y23073581D02*
X-11498052Y23110379D01*
X-11498052Y23110379D02*
X-11496471Y23147161D01*
X-11496471Y23147161D02*
X-11494439Y23183920D01*
X-11494439Y23183920D02*
X-11491957Y23220651D01*
X-11491957Y23220651D02*
X-11489023Y23257350D01*
X-11489023Y23257350D02*
X-11485640Y23294009D01*
X-11485640Y23294009D02*
X-11481807Y23330624D01*
X-11481807Y23330624D02*
X-11477524Y23367190D01*
X-11477524Y23367190D02*
X-11472794Y23403700D01*
X-11472794Y23403700D02*
X-11467616Y23440149D01*
X-11467616Y23440149D02*
X-11461990Y23476532D01*
X-11461990Y23476532D02*
X-11455919Y23512844D01*
X-11455919Y23512844D02*
X-11449403Y23549078D01*
X-11449403Y23549078D02*
X-11442442Y23585229D01*
X-11442442Y23585229D02*
X-11435039Y23621292D01*
X-11435039Y23621292D02*
X-11427193Y23657262D01*
X-11427193Y23657262D02*
X-11418907Y23693132D01*
X-11418907Y23693132D02*
X-11410181Y23728899D01*
X-11410181Y23728899D02*
X-11401017Y23764555D01*
X-11401017Y23764555D02*
X-11391416Y23800096D01*
X-11391416Y23800096D02*
X-11381379Y23835517D01*
X-11381379Y23835517D02*
X-11370909Y23870812D01*
X-11370909Y23870812D02*
X-11360006Y23905976D01*
X-11360006Y23905976D02*
X-11348672Y23941004D01*
X-11348672Y23941004D02*
X-11336910Y23975889D01*
X-11336910Y23975889D02*
X-11324720Y24010628D01*
X-11324720Y24010628D02*
X-11312105Y24045214D01*
X-11312105Y24045214D02*
X-11299067Y24079644D01*
X-11299067Y24079644D02*
X-11285607Y24113910D01*
X-11285607Y24113910D02*
X-11271727Y24148009D01*
X-11271727Y24148009D02*
X-11257430Y24181935D01*
X-11257430Y24181935D02*
X-11242718Y24215683D01*
X-11242718Y24215683D02*
X-11227593Y24249247D01*
X-11227593Y24249247D02*
X-11212057Y24282624D01*
X-11212057Y24282624D02*
X-11196113Y24315808D01*
X-11196113Y24315808D02*
X-11179762Y24348793D01*
X-11179762Y24348793D02*
X-11163008Y24381575D01*
X-11163008Y24381575D02*
X-11145853Y24414149D01*
X-11145853Y24414149D02*
X-11128300Y24446510D01*
X-11128300Y24446510D02*
X-11110351Y24478654D01*
X-11110351Y24478654D02*
X-11092009Y24510574D01*
X-11092009Y24510574D02*
X-11073276Y24542268D01*
X-11073276Y24542268D02*
X-11054156Y24573728D01*
X-11054156Y24573728D02*
X-11034651Y24604952D01*
X-11034651Y24604952D02*
X-11014765Y24635935D01*
X-11014765Y24635935D02*
X-10994499Y24666670D01*
X-10994499Y24666670D02*
X-10973859Y24697155D01*
X-10973859Y24697155D02*
X-10952845Y24727384D01*
X-10952845Y24727384D02*
X-10931463Y24757353D01*
X-10931463Y24757353D02*
X-10909714Y24787058D01*
X-10909714Y24787058D02*
X-10887602Y24816493D01*
X-10887602Y24816493D02*
X-10865131Y24845655D01*
X-10865131Y24845655D02*
X-10842303Y24874539D01*
X-10842303Y24874539D02*
X-10819123Y24903140D01*
X-10819123Y24903140D02*
X-10795593Y24931455D01*
X-10795593Y24931455D02*
X-10771718Y24959479D01*
X-10771718Y24959479D02*
X-10747501Y24987208D01*
X-10747501Y24987208D02*
X-10722945Y25014637D01*
X-10722945Y25014637D02*
X-10698055Y25041764D01*
X-10698055Y25041764D02*
X-10672833Y25068582D01*
X-10672833Y25068582D02*
X-10647285Y25095090D01*
X-10647285Y25095090D02*
X-10621413Y25121281D01*
X-10621413Y25121281D02*
X-10595221Y25147154D01*
X-10595221Y25147154D02*
X-10568714Y25172702D01*
X-10568714Y25172702D02*
X-10541896Y25197924D01*
X-10541896Y25197924D02*
X-10514770Y25222815D01*
X-10514770Y25222815D02*
X-10487340Y25247371D01*
X-10487340Y25247371D02*
X-10459611Y25271588D01*
X-10459611Y25271588D02*
X-10431588Y25295463D01*
X-10431588Y25295463D02*
X-10403273Y25318993D01*
X-10403273Y25318993D02*
X-10374672Y25342174D01*
X-10374672Y25342174D02*
X-10345788Y25365001D01*
X-10345788Y25365001D02*
X-10316626Y25387473D01*
X-10316626Y25387473D02*
X-10287191Y25409585D01*
X-10287191Y25409585D02*
X-10257487Y25431334D01*
X-10257487Y25431334D02*
X-10227518Y25452717D01*
X-10227518Y25452717D02*
X-10197289Y25473730D01*
X-10197289Y25473730D02*
X-10166804Y25494371D01*
X-10166804Y25494371D02*
X-10136069Y25514637D01*
X-10136069Y25514637D02*
X-10105087Y25534524D01*
X-10105087Y25534524D02*
X-10073863Y25554029D01*
X-10073863Y25554029D02*
X-10042402Y25573149D01*
X-10042402Y25573149D02*
X-10010709Y25591882D01*
X-10010709Y25591882D02*
X-9978789Y25610224D01*
X-9978789Y25610224D02*
X-9946645Y25628174D01*
X-9946645Y25628174D02*
X-9914284Y25645727D01*
X-9914284Y25645727D02*
X-9881710Y25662883D01*
X-9881710Y25662883D02*
X-9848928Y25679637D01*
X-9848928Y25679637D02*
X-9815943Y25695987D01*
X-9815943Y25695987D02*
X-9782760Y25711932D01*
X-9782760Y25711932D02*
X-9749383Y25727468D01*
X-9749383Y25727468D02*
X-9715818Y25742594D01*
X-9715818Y25742594D02*
X-9682071Y25757306D01*
X-9682071Y25757306D02*
X-9648145Y25771603D01*
X-9648145Y25771603D02*
X-9614046Y25785483D01*
X-9614046Y25785483D02*
X-9579780Y25798943D01*
X-9579780Y25798943D02*
X-9545351Y25811982D01*
X-9545351Y25811982D02*
X-9510764Y25824597D01*
X-9510764Y25824597D02*
X-9476026Y25836787D01*
X-9476026Y25836787D02*
X-9441140Y25848550D01*
X-9441140Y25848550D02*
X-9406113Y25859884D01*
X-9406113Y25859884D02*
X-9370949Y25870787D01*
X-9370949Y25870787D02*
X-9335654Y25881257D01*
X-9335654Y25881257D02*
X-9300233Y25891294D01*
X-9300233Y25891294D02*
X-9264692Y25900895D01*
X-9264692Y25900895D02*
X-9229036Y25910060D01*
X-9229036Y25910060D02*
X-9193270Y25918786D01*
X-9193270Y25918786D02*
X-9157399Y25927073D01*
X-9157399Y25927073D02*
X-9121429Y25934919D01*
X-9121429Y25934919D02*
X-9085366Y25942322D01*
X-9085366Y25942322D02*
X-9049215Y25949283D01*
X-9049215Y25949283D02*
X-9012981Y25955800D01*
X-9012981Y25955800D02*
X-8976670Y25961871D01*
X-8976670Y25961871D02*
X-8940287Y25967497D01*
X-8940287Y25967497D02*
X-8903838Y25972675D01*
X-8903838Y25972675D02*
X-8867327Y25977406D01*
X-8867327Y25977406D02*
X-8830762Y25981688D01*
X-8830762Y25981688D02*
X-8794147Y25985522D01*
X-8794147Y25985522D02*
X-8757487Y25988906D01*
X-8757487Y25988906D02*
X-8720789Y25991839D01*
X-8720789Y25991839D02*
X-8684058Y25994322D01*
X-8684058Y25994322D02*
X-8647299Y25996355D01*
X-8647299Y25996355D02*
X-8610517Y25997936D01*
X-8610517Y25997936D02*
X-8573719Y25999065D01*
X-8573719Y25999065D02*
X-8536910Y25999743D01*
X-8536910Y25999743D02*
X-8500096Y25999969D01*
X-8500096Y25999969D02*
X8499904Y26000031D01*
X8499904Y26000031D02*
X8536719Y25999805D01*
X8536719Y25999805D02*
X8573528Y25999128D01*
X8573528Y25999128D02*
X8610326Y25997999D01*
X8610326Y25997999D02*
X8647108Y25996418D01*
X8647108Y25996418D02*
X8683867Y25994386D01*
X8683867Y25994386D02*
X8720598Y25991903D01*
X8720598Y25991903D02*
X8757296Y25988970D01*
X8757296Y25988970D02*
X8793956Y25985586D01*
X8793956Y25985586D02*
X8830571Y25981753D01*
X8830571Y25981753D02*
X8867137Y25977471D01*
X8867137Y25977471D02*
X8903647Y25972741D01*
X8903647Y25972741D02*
X8940096Y25967562D01*
X8940096Y25967562D02*
X8976479Y25961937D01*
X8976479Y25961937D02*
X9012790Y25955866D01*
X9012790Y25955866D02*
X9049024Y25949350D01*
X9049024Y25949350D02*
X9085176Y25942389D01*
X9085176Y25942389D02*
X9121239Y25934986D01*
X9121239Y25934986D02*
X9157208Y25927140D01*
X9157208Y25927140D02*
X9193079Y25918854D01*
X9193079Y25918854D02*
X9228845Y25910128D01*
X9228845Y25910128D02*
X9264502Y25900963D01*
X9264502Y25900963D02*
X9300043Y25891362D01*
X9300043Y25891362D02*
X9335464Y25881326D01*
X9335464Y25881326D02*
X9370759Y25870855D01*
X9370759Y25870855D02*
X9405923Y25859953D01*
X9405923Y25859953D02*
X9440950Y25848619D01*
X9440950Y25848619D02*
X9475836Y25836857D01*
X9475836Y25836857D02*
X9510575Y25824667D01*
X9510575Y25824667D02*
X9545161Y25812052D01*
X9545161Y25812052D02*
X9579590Y25799014D01*
X9579590Y25799014D02*
X9613857Y25785554D01*
X9613857Y25785554D02*
X9647956Y25771674D01*
X9647956Y25771674D02*
X9681882Y25757377D01*
X9681882Y25757377D02*
X9715629Y25742665D01*
X9715629Y25742665D02*
X9749194Y25727540D01*
X9749194Y25727540D02*
X9782571Y25712004D01*
X9782571Y25712004D02*
X9815754Y25696059D01*
X9815754Y25696059D02*
X9848740Y25679709D01*
X9848740Y25679709D02*
X9881522Y25662955D01*
X9881522Y25662955D02*
X9914096Y25645800D01*
X9914096Y25645800D02*
X9946457Y25628247D01*
X9946457Y25628247D02*
X9978601Y25610298D01*
X9978601Y25610298D02*
X10010521Y25591955D01*
X10010521Y25591955D02*
X10042214Y25573223D01*
X10042214Y25573223D02*
X10073675Y25554103D01*
X10073675Y25554103D02*
X10104899Y25534598D01*
X10104899Y25534598D02*
X10135881Y25514711D01*
X10135881Y25514711D02*
X10166617Y25494446D01*
X10166617Y25494446D02*
X10197102Y25473805D01*
X10197102Y25473805D02*
X10227331Y25452792D01*
X10227331Y25452792D02*
X10257300Y25431409D01*
X10257300Y25431409D02*
X10287005Y25409660D01*
X10287005Y25409660D02*
X10316440Y25387549D01*
X10316440Y25387549D02*
X10345602Y25365077D01*
X10345602Y25365077D02*
X10374485Y25342250D01*
X10374485Y25342250D02*
X10403087Y25319070D01*
X10403087Y25319070D02*
X10431402Y25295540D01*
X10431402Y25295540D02*
X10459426Y25271665D01*
X10459426Y25271665D02*
X10487155Y25247448D01*
X10487155Y25247448D02*
X10514584Y25222892D01*
X10514584Y25222892D02*
X10541710Y25198002D01*
X10541710Y25198002D02*
X10568529Y25172780D01*
X10568529Y25172780D02*
X10595036Y25147231D01*
X10595036Y25147231D02*
X10621228Y25121359D01*
X10621228Y25121359D02*
X10647100Y25095168D01*
X10647100Y25095168D02*
X10672649Y25068661D01*
X10672649Y25068661D02*
X10697871Y25041842D01*
X10697871Y25041842D02*
X10722761Y25014716D01*
X10722761Y25014716D02*
X10747317Y24987287D01*
X10747317Y24987287D02*
X10771535Y24959558D01*
X10771535Y24959558D02*
X10795410Y24931534D01*
X10795410Y24931534D02*
X10818940Y24903220D01*
X10818940Y24903220D02*
X10842120Y24874618D01*
X10842120Y24874618D02*
X10864948Y24845735D01*
X10864948Y24845735D02*
X10887420Y24816573D01*
X10887420Y24816573D02*
X10909532Y24787138D01*
X10909532Y24787138D02*
X10931281Y24757434D01*
X10931281Y24757434D02*
X10952664Y24727465D01*
X10952664Y24727465D02*
X10973677Y24697236D01*
X10973677Y24697236D02*
X10994318Y24666751D01*
X10994318Y24666751D02*
X11014584Y24636015D01*
X11014584Y24636015D02*
X11034470Y24605033D01*
X11034470Y24605033D02*
X11053975Y24573810D01*
X11053975Y24573810D02*
X11073096Y24542349D01*
X11073096Y24542349D02*
X11091829Y24510656D01*
X11091829Y24510656D02*
X11110171Y24478735D01*
X11110171Y24478735D02*
X11128120Y24446592D01*
X11128120Y24446592D02*
X11145674Y24414231D01*
X11145674Y24414231D02*
X11162829Y24381657D01*
X11162829Y24381657D02*
X11179583Y24348875D01*
X11179583Y24348875D02*
X11195934Y24315890D01*
X11195934Y24315890D02*
X11211879Y24282706D01*
X11211879Y24282706D02*
X11227415Y24249330D01*
X11227415Y24249330D02*
X11242540Y24215765D01*
X11242540Y24215765D02*
X11257253Y24182017D01*
X11257253Y24182017D02*
X11271550Y24148092D01*
X11271550Y24148092D02*
X11285430Y24113993D01*
X11285430Y24113993D02*
X11298890Y24079727D01*
X11298890Y24079727D02*
X11311929Y24045298D01*
X11311929Y24045298D02*
X11324544Y24010711D01*
X11324544Y24010711D02*
X11336734Y23975973D01*
X11336734Y23975973D02*
X11348497Y23941087D01*
X11348497Y23941087D02*
X11359830Y23906060D01*
X11359830Y23906060D02*
X11370733Y23870896D01*
X11370733Y23870896D02*
X11381204Y23835601D01*
X11381204Y23835601D02*
X11391241Y23800180D01*
X11391241Y23800180D02*
X11400842Y23764639D01*
X11400842Y23764639D02*
X11410007Y23728982D01*
X11410007Y23728982D02*
X11418733Y23693216D01*
X11418733Y23693216D02*
X11427019Y23657346D01*
X11427019Y23657346D02*
X11434865Y23621376D01*
X11434865Y23621376D02*
X11442269Y23585313D01*
X11442269Y23585313D02*
X11449230Y23549162D01*
X11449230Y23549162D02*
X11455747Y23512928D01*
X11455747Y23512928D02*
X11461818Y23476617D01*
X11461818Y23476617D02*
X11467443Y23440234D01*
X11467443Y23440234D02*
X11472622Y23403784D01*
X11472622Y23403784D02*
X11477353Y23367274D01*
X11477353Y23367274D02*
X11481635Y23330709D01*
X11481635Y23330709D02*
X11485469Y23294094D01*
X11485469Y23294094D02*
X11488852Y23257434D01*
X11488852Y23257434D02*
X11491786Y23220736D01*
X11491786Y23220736D02*
X11494269Y23184004D01*
X11494269Y23184004D02*
X11496301Y23147245D01*
X11496301Y23147245D02*
X11497882Y23110464D01*
X11497882Y23110464D02*
X11499012Y23073666D01*
X11499012Y23073666D02*
X11499689Y23036857D01*
X11499689Y23036857D02*
X11499916Y23000042D01*
X11499916Y23000042D02*
X11500084Y-22999958D01*
M02*
